<!DOCTYPE svg PUBLIC "-//W3C//DTD SVG 20010904//EN" "http://www.w3.org/TR/2001/REC-SVG-20010904/DTD/svg10.dtd">
<svg version="1.0" xmlns="http://www.w3.org/2000/svg" width="700px" height="700px" viewBox="0 0 7000 7000" preserveAspectRatio="xMidYMid meet">
<g id="layer101" fill="#010101" stroke="none">
 <path d="M2746 6235 c-3 -8 -15 -15 -26 -15 -11 0 -28 -9 -37 -20 -10 -11 -27 -20 -38 -20 -11 0 -28 -8 -37 -17 -30 -33 -47 -43 -78 -49 -16 -4 -30 -13 -30 -20 0 -8 -9 -14 -19 -14 -30 0 -51 -11 -51 -26 0 -9 -11 -14 -30 -14 -19 0 -33 -7 -40 -20 -6 -11 -17 -17 -24 -14 -8 3 -24 -4 -35 -15 -12 -12 -28 -21 -36 -21 -8 0 -15 -7 -15 -15 0 -9 -9 -15 -25 -15 -14 0 -30 -9 -37 -20 -8 -12 -24 -20 -41 -20 -15 0 -30 -7 -33 -15 -4 -8 -15 -15 -25 -15 -11 0 -27 -9 -36 -20 -10 -11 -28 -20 -41 -20 -12 0 -25 -7 -28 -15 -4 -8 -14 -15 -23 -15 -9 0 -24 -9 -34 -20 -9 -11 -26 -20 -37 -20 -11 0 -20 -7 -20 -15 0 -8 -9 -15 -19 -15 -30 0 -51 -11 -51 -26 0 -9 -11 -14 -30 -14 -17 0 -33 -6 -36 -14 -3 -8 -21 -17 -40 -20 -20 -4 -34 -13 -34 -21 0 -9 -10 -15 -25 -15 -14 0 -25 -4 -25 -9 0 -5 -13 -14 -30 -21 -16 -7 -30 -19 -30 -26 0 -9 -11 -14 -30 -14 -18 0 -33 -6 -36 -15 -4 -8 -17 -15 -30 -15 -13 0 -29 -9 -36 -20 -8 -12 -24 -20 -40 -20 -18 0 -28 -5 -28 -15 0 -8 -9 -15 -20 -15 -11 0 -28 -9 -37 -20 -10 -11 -28 -20 -40 -20 -14 0 -21 -5 -17 -13 3 -8 -8 -16 -28 -22 l-33 -10 -5 -908 c-5 -852 -6 -909 -22 -918 -17 -9 -18 -62 -18 -884 0 -480 -3 -882 -7 -892 -6 -14 -9 -11 -14 17 -6 31 -7 29 -8 -17 -1 -36 3 -52 11 -50 6 1 14 -9 18 -23 4 -19 13 -26 38 -28 20 -2 32 -9 32 -18 0 -8 7 -14 15 -14 8 0 20 -9 27 -20 8 -12 24 -20 40 -20 17 0 28 -5 28 -14 0 -15 21 -26 51 -26 10 0 19 -7 19 -15 0 -8 6 -15 13 -15 7 0 21 -9 30 -21 10 -11 25 -18 33 -15 8 3 20 -3 26 -14 8 -12 24 -20 40 -20 18 0 28 -5 28 -14 0 -8 9 -17 19 -21 11 -3 22 -12 25 -20 3 -9 18 -15 36 -15 19 0 30 -5 30 -14 0 -15 21 -26 51 -26 10 0 19 -7 19 -15 0 -8 6 -15 13 -15 7 0 21 -9 30 -21 10 -11 25 -18 33 -15 8 3 20 -3 26 -14 8 -12 24 -20 40 -20 18 0 28 -5 28 -15 0 -8 7 -15 15 -15 8 0 19 -9 25 -20 7 -13 21 -20 40 -20 19 0 30 -5 30 -14 0 -15 21 -26 51 -26 10 0 19 -7 19 -15 0 -8 6 -15 13 -15 7 0 21 -9 30 -21 10 -11 25 -18 32 -15 8 3 19 -3 25 -14 7 -13 21 -20 40 -20 20 0 30 -5 30 -15 0 -8 7 -15 15 -15 8 0 19 -9 25 -20 7 -13 21 -20 40 -20 19 0 30 -5 30 -14 0 -15 21 -26 51 -26 10 0 19 -7 19 -15 0 -8 6 -15 13 -15 7 0 21 -9 30 -21 10 -11 25 -18 32 -15 8 3 19 -3 25 -14 7 -13 21 -20 40 -20 20 0 30 -5 30 -15 0 -8 7 -15 15 -15 8 0 19 -9 25 -20 14 -25 97 -29 106 -5 4 8 15 15 25 15 10 0 28 9 39 20 11 11 27 20 35 20 8 0 15 7 15 15 0 9 9 15 25 15 14 0 30 9 37 20 8 12 24 20 41 20 15 0 30 7 33 15 4 8 15 15 25 15 11 0 27 9 36 20 10 11 27 20 40 20 12 0 26 6 30 14 4 8 17 16 28 18 11 2 19 9 18 16 -2 6 13 14 32 18 20 3 35 12 35 20 0 8 9 14 19 14 30 0 51 11 51 26 0 9 11 14 30 14 19 0 33 7 40 20 6 11 17 17 24 14 8 -3 24 4 35 15 12 12 30 21 41 21 11 0 19 6 17 12 -1 7 8 14 21 16 12 2 28 12 35 23 7 11 23 19 40 19 15 0 30 7 33 15 4 8 15 15 25 15 11 0 27 9 36 20 10 11 28 20 41 20 12 0 25 7 28 15 4 8 14 15 23 15 9 0 24 9 34 20 9 11 26 20 37 20 11 0 20 7 20 15 0 8 9 15 19 15 30 0 51 11 51 26 0 9 11 14 30 14 19 0 33 7 40 20 6 11 17 17 24 14 8 -3 24 4 35 15 12 12 30 21 41 21 11 0 20 4 20 9 0 5 13 14 29 21 16 6 32 18 35 26 3 9 20 14 46 14 22 0 40 5 40 10 0 6 11 15 25 20 14 5 25 14 25 19 0 5 14 12 31 16 17 4 33 13 36 21 3 8 16 14 29 14 13 0 29 9 36 20 8 12 24 20 39 20 15 0 29 7 33 15 3 8 15 15 26 15 11 0 28 9 37 20 10 11 25 20 35 20 10 0 17 6 15 13 -1 7 10 13 26 15 15 2 32 12 37 23 7 12 21 19 40 19 20 0 30 5 30 15 0 8 9 15 19 15 30 0 51 11 51 26 0 9 11 14 30 14 18 0 33 6 36 15 4 8 13 15 20 15 8 0 17 7 20 15 3 8 21 17 40 21 19 3 34 12 34 20 0 8 10 14 25 14 14 0 30 9 37 20 8 12 24 20 39 20 15 0 29 7 33 15 3 8 15 15 26 15 11 0 28 9 37 20 10 11 25 20 35 20 10 0 18 5 18 11 0 5 13 15 29 20 16 6 32 17 35 25 3 8 19 14 36 14 20 0 30 5 30 15 0 8 9 15 19 15 30 0 51 11 51 26 0 9 11 14 30 14 18 0 33 6 36 15 4 8 12 15 19 15 6 0 22 9 35 20 13 11 31 20 42 20 10 0 18 7 18 15 0 9 9 15 25 15 14 0 30 9 37 20 7 11 24 20 38 20 15 0 31 9 38 20 7 12 16 18 21 16 4 -3 17 1 27 9 18 13 19 43 24 852 3 461 7 840 9 843 2 3 7 -6 11 -20 5 -16 8 9 9 73 1 61 -3 96 -9 92 -5 -3 -12 6 -16 20 -3 14 -12 25 -20 25 -8 0 -23 9 -35 21 -11 11 -27 18 -35 15 -7 -3 -18 3 -24 14 -6 11 -19 20 -28 20 -19 0 -53 22 -80 53 -9 9 -24 17 -34 17 -10 0 -27 9 -38 20 -11 11 -29 20 -40 20 -11 0 -20 7 -20 15 0 8 -7 15 -15 15 -8 0 -24 9 -36 21 -11 11 -27 18 -36 15 -9 -4 -17 1 -20 14 -4 14 -14 20 -32 20 -15 0 -34 8 -43 18 -40 40 -56 52 -71 52 -10 0 -26 9 -37 20 -11 11 -29 20 -40 20 -11 0 -20 7 -20 15 0 8 -7 15 -15 15 -8 0 -24 9 -36 21 -11 11 -27 18 -36 15 -9 -4 -17 1 -20 14 -3 12 -14 20 -28 20 -12 0 -32 9 -45 20 -13 11 -27 20 -32 20 -4 0 -8 7 -8 15 0 9 -9 15 -25 15 -14 0 -34 9 -45 20 -11 11 -29 20 -40 20 -11 0 -20 7 -20 15 0 8 -9 15 -20 15 -11 0 -20 7 -20 15 0 14 -6 16 -50 19 -8 1 -16 8 -18 18 -2 9 -17 19 -38 22 -18 4 -34 11 -34 16 0 5 -9 12 -20 15 -11 3 -20 13 -20 21 0 8 -10 14 -25 14 -14 0 -34 9 -45 20 -11 11 -29 20 -40 20 -11 0 -20 7 -20 15 0 8 -9 15 -20 15 -11 0 -20 7 -20 15 0 14 -6 16 -50 19 -9 1 -15 11 -16 26 -2 76 -4 80 -27 80 -23 0 -55 20 -85 53 -9 9 -24 17 -34 17 -10 0 -27 9 -38 20 -11 11 -29 20 -40 20 -11 0 -20 7 -20 15 0 8 -7 15 -15 15 -8 0 -24 9 -36 21 -11 11 -27 18 -36 15 -9 -4 -17 1 -20 13 -3 11 -17 21 -34 25 -30 6 -47 16 -77 49 -9 9 -24 17 -34 17 -10 0 -27 9 -38 20 -11 11 -29 20 -40 20 -11 0 -20 7 -20 15 0 8 -7 15 -15 15 -8 0 -24 9 -36 21 -11 11 -27 18 -36 15 -9 -4 -17 1 -20 14 -3 12 -14 20 -28 20 -12 0 -32 9 -45 20 -13 11 -27 20 -32 20 -4 0 -8 7 -8 15 0 9 -9 15 -25 15 -14 0 -34 9 -45 20 -11 11 -29 20 -40 20 -11 0 -20 7 -20 15 0 8 -9 15 -20 15 -11 0 -20 7 -20 15 0 14 -6 16 -50 19 -8 1 -16 8 -18 18 -2 9 -17 19 -38 22 -18 4 -34 11 -34 16 0 5 -9 12 -20 15 -11 3 -20 13 -20 21 0 9 -11 14 -30 14 -16 0 -30 5 -30 11 0 5 -16 17 -35 25 -19 8 -35 19 -35 24 0 6 -9 10 -20 10 -11 0 -20 7 -20 15 0 8 -14 17 -35 21 -20 3 -35 12 -35 20 0 8 -9 14 -19 14 -11 0 -26 6 -33 14 -8 7 -24 17 -36 20 -12 4 -22 14 -22 22 0 20 -96 20 -104 -1z"/>
 </g>
<g id="layer102" fill="#082627" stroke="none">
 <path d="M2745 6230 c-5 -15 -12 -19 -25 -15 -13 4 -26 -1 -37 -14 -10 -12 -27 -21 -38 -21 -11 0 -28 -8 -37 -17 -30 -33 -47 -43 -78 -49 -16 -4 -30 -13 -30 -20 0 -8 -9 -14 -19 -14 -30 0 -51 -11 -51 -26 0 -9 -11 -14 -30 -14 -19 0 -33 -7 -40 -20 -6 -11 -17 -17 -24 -14 -8 3 -24 -4 -35 -15 -12 -12 -28 -21 -36 -21 -8 0 -15 -7 -15 -15 0 -9 -9 -15 -25 -15 -14 0 -30 -9 -37 -20 -8 -12 -24 -20 -41 -20 -15 0 -30 -7 -33 -15 -4 -8 -15 -15 -25 -15 -11 0 -27 -9 -36 -20 -10 -11 -28 -20 -41 -20 -12 0 -25 -7 -28 -15 -4 -8 -14 -15 -23 -15 -9 0 -24 -9 -34 -20 -9 -11 -26 -20 -37 -20 -11 0 -20 -7 -20 -15 0 -8 -9 -15 -19 -15 -30 0 -51 -11 -51 -26 0 -9 -11 -14 -30 -14 -17 0 -33 -7 -39 -17 -5 -10 -15 -18 -23 -19 -7 0 -21 -2 -30 -2 -10 -1 -18 -9 -18 -17 0 -8 -9 -15 -20 -15 -11 0 -20 -5 -20 -11 0 -5 -13 -15 -29 -20 -16 -6 -32 -17 -35 -25 -3 -8 -17 -14 -30 -14 -14 0 -29 -7 -34 -16 -8 -14 -26 -21 -59 -23 -7 -1 -13 -8 -13 -16 0 -9 -9 -15 -25 -15 -14 0 -33 -9 -42 -20 -10 -11 -24 -20 -31 -20 -7 0 -20 -7 -28 -15 -9 -8 -24 -15 -35 -15 -10 0 -19 -6 -19 -12 0 -7 -15 -20 -33 -28 l-32 -15 -5 -901 c-4 -781 -7 -903 -20 -919 -13 -16 -16 -137 -20 -914 -6 -965 -6 -961 44 -961 14 0 29 -6 33 -13 11 -16 69 -57 83 -57 5 0 19 -9 30 -20 11 -11 29 -20 39 -20 10 0 21 -7 25 -15 3 -8 12 -15 19 -15 8 0 20 -7 27 -15 7 -8 21 -15 31 -15 10 0 23 -9 29 -20 6 -12 21 -20 35 -20 13 0 28 -6 32 -12 11 -17 69 -58 83 -58 5 0 19 -9 30 -20 11 -11 29 -20 39 -20 10 0 21 -7 25 -15 3 -8 12 -15 19 -15 8 0 20 -7 27 -15 7 -8 21 -15 31 -15 10 0 23 -9 29 -20 6 -12 21 -20 35 -20 13 0 28 -6 32 -12 11 -17 69 -58 83 -58 5 0 19 -9 30 -20 11 -11 29 -20 39 -20 10 0 21 -7 25 -15 3 -8 12 -15 19 -15 8 0 20 -7 27 -15 7 -8 21 -15 31 -15 10 0 23 -9 29 -20 6 -11 20 -20 32 -20 12 0 28 -7 37 -15 9 -8 26 -23 39 -35 12 -11 29 -20 37 -20 8 0 24 -9 35 -20 11 -11 29 -20 40 -20 11 0 20 -7 20 -15 0 -8 8 -15 19 -15 10 0 24 -7 31 -15 7 -8 21 -15 31 -15 10 0 23 -9 29 -20 6 -11 21 -20 33 -20 12 0 30 -8 39 -17 43 -45 57 -53 89 -53 23 0 38 6 47 20 7 11 21 20 32 20 11 0 20 4 20 9 0 5 14 14 30 20 17 5 30 15 30 20 0 6 9 11 20 11 11 0 28 9 37 20 10 11 28 20 40 20 12 0 27 9 33 20 7 13 21 20 40 20 20 0 30 5 30 15 0 9 9 15 23 15 13 0 32 9 42 20 10 11 27 20 37 20 11 0 16 5 13 10 -4 6 8 13 25 17 18 3 34 12 37 19 3 8 14 14 24 14 10 0 28 9 39 20 11 11 28 20 38 20 11 0 27 9 37 20 10 11 26 20 35 20 10 0 23 7 30 15 7 8 21 15 31 15 11 0 19 7 19 15 0 9 9 15 25 15 14 0 29 8 35 20 7 13 21 20 40 20 20 0 30 5 30 15 0 9 9 15 25 15 14 0 33 9 42 20 10 11 28 20 41 20 12 0 25 7 28 15 4 8 14 15 23 15 9 0 24 9 34 20 9 11 26 20 37 20 11 0 20 7 20 15 0 8 9 15 19 15 30 0 51 11 51 26 0 9 11 14 30 14 19 0 33 7 40 20 6 11 17 17 24 14 8 -3 24 4 35 15 12 12 30 21 41 21 11 0 20 4 20 9 0 5 13 14 29 21 16 6 32 18 35 26 3 9 20 14 46 14 22 0 40 5 40 10 0 6 11 15 25 20 14 5 25 14 25 19 0 5 14 12 31 16 17 4 33 13 36 21 3 8 16 14 29 14 13 0 29 9 36 20 8 12 24 20 39 20 15 0 29 7 33 15 3 8 15 15 26 15 11 0 28 9 37 20 10 11 25 20 35 20 10 0 17 6 15 13 -1 7 10 13 27 15 18 2 30 11 33 23 4 14 14 19 39 19 24 0 34 5 34 15 0 8 9 15 19 15 30 0 51 11 51 26 0 9 11 14 30 14 18 0 33 6 36 15 4 8 13 15 20 15 8 0 17 7 20 15 3 8 21 17 40 21 19 3 34 12 34 20 0 8 10 14 25 14 14 0 30 9 37 20 8 12 24 20 39 20 15 0 29 7 33 15 3 8 15 15 26 15 11 0 28 9 37 20 10 11 25 20 35 20 10 0 18 5 18 11 0 5 13 15 29 20 16 6 32 17 35 25 3 8 19 14 36 14 20 0 30 5 30 15 0 8 9 15 19 15 30 0 51 11 51 26 0 9 11 14 30 14 18 0 33 6 36 15 4 8 12 15 19 15 6 0 22 9 35 20 13 11 31 20 42 20 10 0 18 7 18 15 0 9 9 15 25 15 14 0 30 9 37 20 7 11 24 20 38 20 15 0 31 9 38 20 7 12 16 18 21 16 4 -3 17 1 27 9 18 13 19 43 24 852 3 461 7 840 9 843 2 3 7 -6 11 -20 5 -16 8 9 9 73 1 61 -3 96 -9 92 -5 -3 -12 6 -16 20 -3 14 -12 25 -20 25 -8 0 -23 9 -35 21 -11 11 -27 18 -35 15 -7 -3 -18 3 -24 14 -6 11 -21 20 -33 20 -12 0 -30 8 -39 18 -40 40 -56 52 -71 52 -10 0 -26 9 -37 20 -11 11 -29 20 -40 20 -11 0 -20 7 -20 15 0 8 -7 15 -15 15 -8 0 -24 9 -36 21 -11 11 -27 18 -36 15 -9 -4 -17 1 -20 14 -4 14 -14 20 -32 20 -15 0 -34 8 -43 18 -40 40 -56 52 -71 52 -10 0 -26 9 -37 20 -11 11 -29 20 -40 20 -11 0 -20 7 -20 15 0 8 -7 15 -15 15 -8 0 -24 9 -36 21 -11 11 -27 18 -36 15 -9 -4 -17 1 -20 14 -3 12 -14 20 -28 20 -12 0 -32 9 -45 20 -13 11 -27 20 -32 20 -4 0 -8 7 -8 15 0 9 -9 15 -25 15 -14 0 -34 9 -45 20 -11 11 -29 20 -40 20 -11 0 -20 7 -20 15 0 8 -9 15 -20 15 -11 0 -20 7 -20 15 0 14 -6 16 -50 19 -8 1 -16 8 -18 18 -2 9 -17 19 -38 22 -18 4 -34 11 -34 16 0 5 -9 12 -20 15 -11 3 -20 13 -20 21 0 8 -10 14 -25 14 -14 0 -34 9 -45 20 -11 11 -29 20 -40 20 -11 0 -20 7 -20 15 0 8 -9 15 -20 15 -11 0 -20 7 -20 15 0 14 -6 16 -50 19 -9 1 -15 11 -16 26 -2 76 -4 80 -27 80 -23 0 -55 20 -85 53 -9 9 -24 17 -34 17 -10 0 -27 9 -38 20 -11 11 -29 20 -40 20 -11 0 -20 7 -20 15 0 8 -7 15 -15 15 -8 0 -24 9 -36 21 -11 11 -27 18 -36 15 -9 -4 -17 1 -20 13 -3 11 -17 21 -34 25 -30 6 -47 16 -77 49 -9 9 -24 17 -34 17 -10 0 -27 9 -38 20 -11 11 -29 20 -40 20 -11 0 -20 7 -20 15 0 8 -7 15 -15 15 -8 0 -24 9 -36 21 -11 11 -27 18 -36 15 -9 -4 -17 1 -20 14 -3 12 -14 20 -28 20 -12 0 -32 9 -45 20 -13 11 -27 20 -32 20 -4 0 -8 7 -8 15 0 9 -9 15 -25 15 -14 0 -34 9 -45 20 -11 11 -29 20 -40 20 -11 0 -20 7 -20 15 0 8 -9 15 -20 15 -11 0 -20 7 -20 15 0 14 -6 16 -50 19 -8 1 -16 8 -18 18 -2 9 -17 19 -38 22 -18 4 -34 11 -34 16 0 5 -9 12 -20 15 -11 3 -20 13 -20 21 0 9 -11 14 -30 14 -16 0 -30 5 -30 11 0 5 -16 17 -35 25 -19 8 -35 19 -35 24 0 6 -9 10 -20 10 -11 0 -20 7 -20 15 0 14 -6 16 -50 19 -8 1 -16 9 -18 19 -2 9 -12 17 -22 17 -10 0 -25 6 -32 14 -8 7 -24 17 -36 20 -12 4 -22 14 -22 22 0 10 -13 14 -49 14 -41 0 -51 -3 -56 -20z m395 -2835 c199 -56 267 -130 246 -267 -9 -59 -76 -128 -140 -144 -14 -3 -30 -12 -37 -20 -6 -8 -19 -14 -29 -14 -10 0 -23 -7 -30 -15 -7 -8 -17 -15 -23 -15 -6 0 -21 -10 -34 -22 -35 -33 -33 -99 5 -124 33 -22 95 -22 137 0 48 25 71 21 84 -15 25 -71 6 -103 -80 -137 -53 -21 -68 -23 -245 -19 -198 3 -243 12 -316 61 -41 27 -78 97 -78 148 0 67 58 162 115 190 54 25 87 46 124 77 36 31 41 40 41 77 0 33 -5 46 -22 58 -28 20 -82 20 -116 2 -29 -16 -133 -49 -136 -44 -46 64 -49 113 -8 149 39 35 81 56 128 63 22 4 58 14 80 21 54 20 247 14 334 -10z m-1085 -4 c174 -16 280 -83 349 -226 34 -70 36 -79 36 -174 0 -92 -3 -107 -31 -167 -84 -178 -246 -235 -629 -220 -187 8 -220 19 -233 81 -13 65 -4 672 10 686 7 7 32 16 55 20 62 10 326 10 443 0z"/>
 <path d="M2013 3158 c-22 -11 -23 -15 -23 -168 0 -151 1 -157 23 -178 70 -66 197 43 197 169 0 125 -107 221 -197 177z"/>
 </g>
<g id="layer103" fill="#200f2e" stroke="none">
 <path d="M2745 6230 c-5 -15 -12 -19 -25 -15 -13 4 -26 -1 -37 -14 -10 -12 -27 -21 -38 -21 -11 0 -28 -8 -37 -17 -30 -33 -47 -43 -78 -49 -16 -4 -30 -13 -30 -20 0 -8 -9 -14 -19 -14 -30 0 -51 -11 -51 -26 0 -9 -11 -14 -30 -14 -19 0 -33 -7 -40 -20 -6 -11 -17 -17 -24 -14 -8 3 -24 -4 -35 -15 -12 -12 -28 -21 -36 -21 -8 0 -15 -7 -15 -15 0 -9 -9 -15 -25 -15 -14 0 -30 -9 -37 -20 -8 -12 -24 -20 -41 -20 -15 0 -30 -7 -33 -15 -4 -8 -15 -15 -25 -15 -11 0 -27 -9 -36 -20 -10 -11 -28 -20 -41 -20 -12 0 -25 -7 -28 -15 -4 -8 -14 -15 -23 -15 -9 0 -24 -9 -34 -20 -9 -11 -26 -20 -37 -20 -11 0 -20 -7 -20 -15 0 -8 -9 -15 -19 -15 -30 0 -51 -11 -51 -26 0 -9 -11 -14 -30 -14 -17 0 -33 -7 -39 -17 -5 -10 -15 -18 -23 -19 -7 0 -21 -2 -30 -2 -10 -1 -18 -9 -18 -17 0 -8 -9 -15 -20 -15 -11 0 -20 -5 -20 -11 0 -5 -13 -15 -29 -20 -16 -6 -32 -17 -35 -25 -3 -8 -17 -14 -30 -14 -14 0 -29 -7 -34 -16 -8 -14 -26 -21 -59 -23 -7 -1 -13 -8 -13 -16 0 -9 -9 -15 -25 -15 -14 0 -33 -9 -42 -20 -10 -11 -24 -20 -31 -20 -7 0 -20 -7 -28 -15 -9 -8 -24 -15 -35 -15 -10 0 -19 -6 -19 -12 0 -7 -15 -20 -33 -28 l-32 -15 -5 -901 c-4 -781 -7 -903 -20 -919 -13 -16 -16 -137 -20 -914 -6 -965 -6 -961 44 -961 14 0 29 -6 33 -13 11 -16 69 -57 83 -57 5 0 19 -9 30 -20 11 -11 29 -20 39 -20 10 0 21 -7 25 -15 3 -8 12 -15 19 -15 8 0 20 -7 27 -15 7 -8 21 -15 31 -15 10 0 23 -9 29 -20 6 -12 21 -20 35 -20 13 0 28 -6 32 -12 11 -17 69 -58 83 -58 5 0 19 -9 31 -21 11 -11 27 -18 35 -15 7 3 18 -3 24 -14 6 -11 17 -20 24 -20 8 0 19 -7 26 -15 7 -8 21 -15 31 -15 10 0 23 -9 29 -20 6 -12 21 -20 35 -20 13 0 28 -6 32 -12 11 -17 69 -58 83 -58 5 0 19 -9 30 -20 11 -11 29 -20 39 -20 10 0 21 -7 25 -15 3 -8 12 -15 19 -15 8 0 20 -7 27 -15 7 -8 21 -15 31 -15 10 0 23 -9 29 -20 6 -11 20 -20 32 -20 12 0 28 -7 37 -15 9 -8 26 -23 39 -35 12 -11 29 -20 37 -20 8 0 24 -9 35 -20 11 -11 29 -20 40 -20 11 0 20 -7 20 -15 0 -8 8 -15 19 -15 10 0 24 -7 31 -15 7 -8 21 -15 31 -15 10 0 23 -9 29 -20 6 -11 21 -20 33 -20 12 0 30 -8 39 -17 43 -45 57 -53 89 -53 23 0 38 6 47 20 7 11 21 20 32 20 11 0 20 4 20 9 0 5 14 14 30 20 17 5 30 15 30 20 0 6 9 11 20 11 11 0 28 9 37 20 10 11 28 20 40 20 12 0 27 9 33 20 7 13 21 20 40 20 20 0 30 5 30 15 0 9 9 15 23 15 13 0 32 9 42 20 10 11 27 20 37 20 11 0 16 5 13 10 -4 6 8 13 25 17 18 3 34 12 37 19 3 8 14 14 24 14 10 0 28 9 39 20 11 11 28 20 38 20 11 0 27 9 37 20 10 11 26 20 35 20 10 0 23 7 30 15 7 8 21 15 31 15 11 0 19 7 19 15 0 9 9 15 25 15 14 0 29 8 35 20 7 13 21 20 40 20 20 0 30 5 30 15 0 9 9 15 25 15 14 0 33 9 42 20 10 11 28 20 41 20 12 0 25 7 28 15 4 8 14 15 23 15 9 0 24 9 34 20 9 11 26 20 37 20 11 0 20 7 20 15 0 8 9 15 19 15 30 0 51 11 51 26 0 9 11 14 30 14 19 0 33 7 40 20 6 11 17 17 24 14 8 -3 24 4 35 15 12 12 30 21 41 21 11 0 20 4 20 9 0 5 13 14 29 21 16 6 32 18 35 26 3 9 20 14 46 14 22 0 40 5 40 10 0 6 11 15 25 20 14 5 25 14 25 19 0 5 14 12 31 16 17 4 33 13 36 21 3 8 16 14 29 14 13 0 29 9 36 20 8 12 24 20 39 20 15 0 29 7 33 15 3 8 15 15 26 15 11 0 28 9 37 20 10 11 25 20 35 20 10 0 17 6 15 13 -1 7 10 13 27 15 18 2 30 11 33 23 4 14 14 19 39 19 24 0 34 5 34 15 0 8 9 15 19 15 30 0 51 11 51 26 0 9 11 14 30 14 18 0 33 6 36 15 4 8 13 15 20 15 8 0 17 7 20 15 3 8 21 17 40 21 19 3 34 12 34 20 0 8 10 14 25 14 14 0 30 9 37 20 8 12 24 20 39 20 15 0 29 7 33 15 3 8 15 15 26 15 11 0 28 9 37 20 10 11 25 20 35 20 10 0 18 5 18 11 0 5 13 15 29 20 16 6 32 17 35 25 3 8 19 14 36 14 20 0 30 5 30 15 0 8 9 15 19 15 30 0 51 11 51 26 0 9 11 14 30 14 18 0 33 6 36 15 4 8 12 15 19 15 6 0 22 9 35 20 13 11 31 20 42 20 10 0 18 7 18 15 0 9 9 15 25 15 14 0 30 9 37 20 7 11 24 20 38 20 15 0 31 9 38 20 7 12 16 18 21 16 4 -3 17 1 27 9 18 13 19 43 24 852 3 461 7 840 9 843 2 3 7 -6 11 -20 5 -16 8 9 9 73 1 61 -3 96 -9 92 -5 -3 -12 6 -16 20 -3 14 -12 25 -20 25 -8 0 -23 9 -35 21 -11 11 -27 18 -35 15 -7 -3 -18 3 -24 14 -6 11 -21 20 -33 20 -12 0 -30 8 -39 18 -40 40 -56 52 -71 52 -10 0 -26 9 -37 20 -11 11 -29 20 -40 20 -11 0 -20 7 -20 15 0 8 -7 15 -15 15 -8 0 -24 9 -36 21 -11 11 -27 18 -36 15 -9 -4 -17 1 -20 14 -4 14 -14 20 -32 20 -15 0 -34 8 -43 18 -40 40 -56 52 -71 52 -10 0 -26 9 -37 20 -11 11 -29 20 -40 20 -11 0 -20 7 -20 15 0 8 -7 15 -15 15 -8 0 -24 9 -36 21 -11 11 -27 18 -36 15 -9 -4 -17 1 -20 14 -3 12 -14 20 -28 20 -12 0 -32 9 -45 20 -13 11 -27 20 -32 20 -4 0 -8 7 -8 15 0 9 -9 15 -25 15 -14 0 -34 9 -45 20 -11 11 -29 20 -40 20 -11 0 -20 7 -20 15 0 8 -9 15 -20 15 -11 0 -20 7 -20 15 0 14 -6 16 -50 19 -8 1 -16 8 -18 18 -2 9 -17 19 -38 22 -18 4 -34 11 -34 16 0 5 -9 12 -20 15 -11 3 -20 13 -20 21 0 8 -10 14 -25 14 -14 0 -34 9 -45 20 -11 11 -29 20 -40 20 -11 0 -20 7 -20 15 0 8 -9 15 -20 15 -11 0 -20 7 -20 15 0 14 -6 16 -50 19 -9 1 -15 11 -16 26 -2 76 -4 80 -27 80 -23 0 -55 20 -85 53 -9 9 -24 17 -34 17 -10 0 -27 9 -38 20 -11 11 -29 20 -40 20 -11 0 -20 7 -20 15 0 8 -7 15 -15 15 -8 0 -24 9 -36 21 -11 11 -27 18 -36 15 -9 -4 -17 1 -20 13 -3 11 -17 21 -34 25 -30 6 -47 16 -77 49 -9 9 -24 17 -34 17 -10 0 -27 9 -38 20 -11 11 -29 20 -40 20 -11 0 -20 7 -20 15 0 8 -7 15 -15 15 -8 0 -24 9 -36 21 -11 11 -27 18 -36 15 -9 -4 -17 1 -20 14 -3 12 -14 20 -28 20 -12 0 -32 9 -45 20 -13 11 -27 20 -32 20 -4 0 -8 7 -8 15 0 9 -9 15 -25 15 -14 0 -34 9 -45 20 -11 11 -29 20 -40 20 -11 0 -20 7 -20 15 0 8 -9 15 -20 15 -11 0 -20 7 -20 15 0 14 -6 16 -50 19 -8 1 -16 8 -18 18 -2 9 -17 19 -38 22 -18 4 -34 11 -34 16 0 5 -9 12 -20 15 -11 3 -20 13 -20 21 0 9 -11 14 -30 14 -16 0 -30 5 -30 11 0 5 -16 17 -35 25 -19 8 -35 19 -35 24 0 6 -9 10 -20 10 -11 0 -20 7 -20 15 0 14 -6 16 -50 19 -8 1 -16 9 -18 19 -2 9 -12 17 -22 17 -10 0 -25 6 -32 14 -8 7 -24 17 -36 20 -12 4 -22 14 -22 22 0 10 -13 14 -49 14 -41 0 -51 -3 -56 -20z m-674 -2820 c158 -27 230 -66 303 -162 68 -88 80 -130 80 -263 0 -110 -2 -124 -27 -171 -35 -67 -101 -140 -146 -164 -111 -56 -137 -60 -419 -60 -255 0 -264 1 -293 22 -18 13 -33 37 -40 61 -6 24 -11 164 -11 346 0 256 2 312 15 344 9 20 20 37 24 37 4 1 31 7 58 15 78 22 319 19 456 -5z m1069 -15 c199 -56 267 -130 246 -267 -9 -59 -76 -128 -140 -144 -14 -3 -30 -12 -37 -20 -6 -8 -19 -14 -29 -14 -10 0 -23 -7 -30 -15 -7 -8 -17 -15 -23 -15 -6 0 -21 -10 -34 -22 -35 -33 -33 -99 5 -124 33 -22 95 -22 137 0 48 25 71 21 84 -15 25 -71 8 -101 -76 -135 -54 -22 -72 -24 -239 -24 -162 0 -186 2 -229 21 -26 11 -57 18 -68 15 -26 -6 -62 23 -95 75 -31 51 -31 156 0 208 37 62 69 91 94 85 12 -3 25 -1 29 5 3 6 21 17 38 25 18 7 49 29 70 48 31 28 37 40 37 75 0 32 -5 46 -22 57 -28 20 -88 21 -114 1 -10 -8 -27 -15 -37 -15 -10 0 -16 -4 -13 -9 4 -5 -14 -17 -40 -27 -44 -17 -46 -17 -65 3 -23 23 -41 89 -32 118 14 46 65 89 132 110 17 5 21 4 16 -5 -8 -13 43 -6 102 16 53 19 248 13 333 -11z"/>
 <path d="M2022 3138 c-8 -8 -12 -56 -12 -149 0 -118 3 -140 18 -159 40 -49 130 13 152 105 12 49 11 62 -4 110 -20 65 -62 105 -110 105 -17 0 -37 -5 -44 -12z"/>
 </g>
<g id="layer104" fill="#083c66" stroke="none">
 <path d="M2745 6230 c-5 -15 -12 -19 -25 -15 -13 4 -26 -1 -37 -14 -10 -12 -27 -21 -38 -21 -11 0 -28 -8 -37 -17 -30 -33 -47 -43 -78 -49 -16 -4 -30 -13 -30 -20 0 -8 -9 -14 -19 -14 -30 0 -51 -11 -51 -26 0 -9 -11 -14 -30 -14 -19 0 -33 -7 -40 -20 -6 -11 -17 -17 -24 -14 -8 3 -24 -4 -35 -15 -12 -12 -28 -21 -36 -21 -8 0 -15 -7 -15 -15 0 -9 -9 -15 -25 -15 -14 0 -30 -9 -37 -20 -8 -12 -24 -20 -41 -20 -15 0 -30 -7 -33 -15 -4 -8 -15 -15 -25 -15 -11 0 -27 -9 -36 -20 -10 -11 -28 -20 -41 -20 -12 0 -25 -7 -28 -15 -4 -8 -14 -15 -23 -15 -9 0 -24 -9 -34 -20 -9 -11 -26 -20 -37 -20 -11 0 -20 -7 -20 -15 0 -8 -9 -15 -19 -15 -30 0 -51 -11 -51 -26 0 -9 -11 -14 -30 -14 -17 0 -33 -7 -39 -17 -5 -10 -15 -18 -23 -19 -7 0 -21 -2 -30 -2 -10 -1 -18 -9 -18 -17 0 -8 -9 -15 -20 -15 -11 0 -20 -5 -20 -11 0 -5 -13 -15 -29 -20 -16 -6 -32 -17 -35 -25 -3 -8 -17 -14 -30 -14 -14 0 -29 -7 -34 -16 -8 -14 -26 -21 -59 -23 -7 -1 -13 -8 -13 -16 0 -9 -9 -15 -25 -15 -14 0 -33 -9 -42 -20 -10 -11 -24 -20 -31 -20 -7 0 -20 -7 -28 -15 -9 -8 -24 -15 -35 -15 -10 0 -19 -6 -19 -12 0 -7 -15 -20 -33 -28 l-32 -15 -5 -901 c-4 -781 -7 -903 -20 -919 -13 -16 -16 -137 -20 -914 -6 -965 -6 -961 44 -961 14 0 29 -6 33 -13 11 -16 69 -57 83 -57 5 0 19 -9 30 -20 11 -11 29 -20 39 -20 10 0 21 -7 25 -15 3 -8 12 -15 19 -15 8 0 20 -7 27 -15 7 -8 21 -15 31 -15 10 0 23 -9 29 -20 6 -12 21 -20 35 -20 13 0 28 -6 32 -12 11 -17 69 -58 83 -58 5 0 19 -9 31 -21 11 -11 27 -18 35 -15 7 3 18 -3 24 -14 6 -11 17 -20 24 -20 8 0 19 -7 26 -15 7 -8 21 -15 31 -15 10 0 23 -9 29 -20 6 -12 21 -20 35 -20 13 0 28 -6 32 -12 11 -17 69 -58 83 -58 5 0 19 -9 30 -20 11 -11 29 -20 39 -20 10 0 21 -7 25 -15 3 -8 12 -15 19 -15 8 0 20 -7 27 -15 7 -8 21 -15 31 -15 10 0 23 -9 29 -20 6 -11 20 -20 32 -20 12 0 28 -7 37 -15 9 -8 26 -23 39 -35 12 -11 29 -20 37 -20 8 0 24 -9 35 -20 11 -11 29 -20 40 -20 11 0 20 -7 20 -15 0 -8 8 -15 19 -15 10 0 24 -7 31 -15 7 -8 21 -15 31 -15 10 0 23 -9 29 -20 6 -11 21 -20 33 -20 12 0 30 -8 39 -17 43 -45 57 -53 89 -53 23 0 38 6 47 20 7 11 21 20 32 20 11 0 20 4 20 9 0 5 14 14 30 20 17 5 30 15 30 20 0 6 9 11 20 11 11 0 28 9 37 20 10 11 28 20 40 20 12 0 27 9 33 20 7 13 21 20 40 20 20 0 30 5 30 15 0 9 9 15 23 15 13 0 32 9 42 20 10 11 27 20 37 20 11 0 16 5 13 10 -4 6 8 13 25 17 18 3 34 12 37 19 3 8 14 14 24 14 10 0 28 9 39 20 11 11 28 20 38 20 11 0 27 9 37 20 10 11 26 20 35 20 10 0 23 7 30 15 7 8 21 15 31 15 11 0 19 7 19 15 0 9 9 15 25 15 14 0 29 8 35 20 7 13 21 20 40 20 20 0 30 5 30 15 0 9 9 15 25 15 14 0 33 9 42 20 10 11 28 20 41 20 12 0 25 7 28 15 4 8 14 15 23 15 9 0 24 9 34 20 9 11 26 20 37 20 11 0 20 7 20 15 0 8 9 15 19 15 30 0 51 11 51 26 0 9 11 14 30 14 19 0 33 7 40 20 6 11 17 17 24 14 8 -3 24 4 35 15 12 12 30 21 41 21 11 0 20 4 20 9 0 5 13 14 29 21 16 6 32 18 35 26 3 9 20 14 46 14 22 0 40 5 40 10 0 6 11 15 25 20 14 5 25 14 25 19 0 5 14 12 31 16 17 4 33 13 36 21 3 8 16 14 29 14 13 0 29 9 36 20 8 12 24 20 39 20 15 0 29 7 33 15 3 8 15 15 26 15 11 0 28 9 37 20 10 11 25 20 35 20 10 0 17 6 15 13 -1 7 10 13 27 15 18 2 30 11 33 23 4 14 14 19 39 19 24 0 34 5 34 15 0 8 9 15 19 15 30 0 51 11 51 26 0 9 11 14 30 14 18 0 33 6 36 15 4 8 13 15 20 15 8 0 17 7 20 15 3 8 21 17 40 21 19 3 34 12 34 20 0 8 10 14 25 14 14 0 30 9 37 20 8 12 24 20 39 20 15 0 29 7 33 15 3 8 15 15 26 15 11 0 28 9 37 20 10 11 25 20 35 20 10 0 18 5 18 11 0 5 13 15 29 20 16 6 32 17 35 25 3 8 19 14 36 14 20 0 30 5 30 15 0 8 9 15 19 15 30 0 51 11 51 26 0 9 11 14 30 14 18 0 33 6 36 15 4 8 12 15 19 15 6 0 22 9 35 20 13 11 31 20 42 20 10 0 18 7 18 15 0 9 9 15 25 15 14 0 30 9 37 20 7 11 24 20 38 20 15 0 31 9 38 20 7 12 16 18 21 16 4 -3 17 1 27 9 18 13 19 43 24 852 3 461 7 840 9 843 2 3 7 -6 11 -20 5 -16 8 9 9 73 1 61 -3 96 -9 92 -5 -3 -12 6 -16 20 -3 14 -12 25 -20 25 -8 0 -23 9 -35 21 -11 11 -27 18 -35 15 -7 -3 -18 3 -24 14 -6 11 -21 20 -33 20 -12 0 -30 8 -39 18 -40 40 -56 52 -71 52 -10 0 -26 9 -37 20 -11 11 -29 20 -40 20 -11 0 -20 7 -20 15 0 8 -7 15 -15 15 -8 0 -24 9 -36 21 -11 11 -27 18 -36 15 -9 -4 -17 1 -20 14 -4 14 -14 20 -32 20 -15 0 -34 8 -43 18 -40 40 -56 52 -71 52 -10 0 -26 9 -37 20 -11 11 -29 20 -40 20 -11 0 -20 7 -20 15 0 8 -7 15 -15 15 -8 0 -24 9 -36 21 -11 11 -27 18 -36 15 -9 -4 -17 1 -20 14 -3 12 -14 20 -28 20 -12 0 -32 9 -45 20 -13 11 -27 20 -32 20 -4 0 -8 7 -8 15 0 9 -9 15 -25 15 -14 0 -34 9 -45 20 -11 11 -29 20 -40 20 -11 0 -20 7 -20 15 0 8 -9 15 -20 15 -11 0 -20 7 -20 15 0 14 -6 16 -50 19 -8 1 -16 8 -18 18 -2 9 -17 19 -38 22 -18 4 -34 11 -34 16 0 5 -9 12 -20 15 -11 3 -20 13 -20 21 0 8 -10 14 -25 14 -14 0 -34 9 -45 20 -11 11 -29 20 -40 20 -11 0 -20 7 -20 15 0 8 -9 15 -20 15 -11 0 -20 7 -20 15 0 14 -6 16 -50 19 -9 1 -15 11 -16 26 -2 76 -4 80 -27 80 -23 0 -55 20 -85 53 -9 9 -24 17 -34 17 -10 0 -27 9 -38 20 -11 11 -29 20 -40 20 -11 0 -20 7 -20 15 0 8 -7 15 -15 15 -8 0 -24 9 -36 21 -11 11 -27 18 -36 15 -9 -4 -17 1 -20 13 -3 11 -17 21 -34 25 -30 6 -47 16 -77 49 -9 9 -24 17 -34 17 -10 0 -27 9 -38 20 -11 11 -29 20 -40 20 -11 0 -20 7 -20 15 0 8 -7 15 -15 15 -8 0 -24 9 -36 21 -11 11 -27 18 -36 15 -9 -4 -17 1 -20 14 -3 12 -14 20 -28 20 -12 0 -32 9 -45 20 -13 11 -27 20 -32 20 -4 0 -8 7 -8 15 0 9 -9 15 -25 15 -14 0 -34 9 -45 20 -11 11 -29 20 -40 20 -11 0 -20 7 -20 15 0 8 -9 15 -20 15 -11 0 -20 7 -20 15 0 14 -6 16 -50 19 -8 1 -16 8 -18 18 -2 9 -17 19 -38 22 -18 4 -34 11 -34 16 0 5 -9 12 -20 15 -11 3 -20 13 -20 21 0 9 -11 14 -30 14 -16 0 -30 5 -30 11 0 5 -16 17 -35 25 -19 8 -35 19 -35 24 0 6 -9 10 -20 10 -11 0 -20 7 -20 15 0 14 -6 16 -50 19 -8 1 -16 9 -18 19 -2 9 -12 17 -22 17 -10 0 -25 6 -32 14 -8 7 -24 17 -36 20 -12 4 -22 14 -22 22 0 10 -13 14 -49 14 -41 0 -51 -3 -56 -20z m415 -2817 c164 -45 260 -131 260 -236 0 -99 -54 -163 -201 -234 -117 -57 -144 -80 -135 -116 10 -42 53 -52 135 -32 38 10 77 15 85 12 22 -9 56 -67 56 -97 0 -63 -77 -110 -215 -130 -114 -16 -200 -16 -295 0 -180 32 -260 104 -260 234 0 55 5 76 27 113 24 42 113 123 134 123 13 0 68 39 96 69 30 31 29 47 -3 68 -23 15 -33 15 -87 4 -34 -7 -81 -19 -105 -28 -41 -15 -44 -15 -63 4 -23 23 -41 89 -32 118 15 50 50 77 148 117 91 36 341 43 455 11z m-1089 -3 c158 -27 230 -66 303 -162 68 -88 80 -130 80 -263 0 -110 -2 -124 -27 -171 -35 -67 -101 -140 -146 -164 -111 -56 -137 -60 -419 -60 -255 0 -264 1 -293 22 -18 13 -33 37 -40 61 -6 24 -11 164 -11 346 0 256 2 312 15 344 9 20 20 37 24 37 4 1 31 7 58 15 78 22 319 19 456 -5z"/>
 <path d="M2022 3138 c-8 -8 -12 -56 -12 -149 0 -118 3 -140 18 -159 40 -49 130 13 152 105 12 49 11 62 -4 110 -20 65 -62 105 -110 105 -17 0 -37 -5 -44 -12z"/>
 </g>
<g id="layer105" fill="#205c2d" stroke="none">
 <path d="M2745 6230 c-5 -15 -12 -19 -25 -15 -13 4 -26 -1 -37 -14 -10 -12 -27 -21 -38 -21 -11 0 -28 -8 -37 -17 -30 -33 -47 -43 -78 -49 -16 -4 -30 -13 -30 -20 0 -8 -9 -14 -19 -14 -30 0 -51 -11 -51 -26 0 -9 -11 -14 -30 -14 -19 0 -33 -7 -40 -20 -6 -11 -17 -17 -24 -14 -8 3 -24 -4 -35 -15 -12 -12 -28 -21 -36 -21 -8 0 -15 -7 -15 -15 0 -9 -9 -15 -25 -15 -14 0 -30 -9 -37 -20 -8 -12 -24 -20 -41 -20 -15 0 -30 -7 -33 -15 -4 -8 -15 -15 -25 -15 -11 0 -27 -9 -36 -20 -10 -11 -28 -20 -41 -20 -12 0 -25 -7 -28 -15 -4 -8 -14 -15 -23 -15 -9 0 -24 -9 -34 -20 -9 -11 -26 -20 -37 -20 -11 0 -20 -7 -20 -15 0 -8 -9 -15 -19 -15 -30 0 -51 -11 -51 -26 0 -9 -11 -14 -30 -14 -17 0 -33 -7 -39 -17 -5 -10 -15 -18 -23 -19 -7 0 -21 -2 -30 -2 -10 -1 -18 -9 -18 -17 0 -8 -9 -15 -20 -15 -11 0 -20 -5 -20 -11 0 -5 -13 -15 -29 -20 -16 -6 -32 -17 -35 -25 -3 -8 -17 -14 -30 -14 -14 0 -29 -7 -34 -16 -8 -14 -26 -21 -59 -23 -7 -1 -13 -8 -13 -16 0 -9 -9 -15 -25 -15 -14 0 -33 -9 -42 -20 -10 -11 -24 -20 -31 -20 -7 0 -20 -7 -28 -15 -9 -8 -24 -15 -35 -15 -10 0 -19 -6 -19 -12 0 -7 -15 -20 -33 -28 l-32 -15 -5 -901 c-4 -633 -8 -905 -16 -915 -14 -18 -17 -106 -20 -524 -1 -220 1 -317 7 -276 4 35 11 71 13 78 3 8 1 11 -4 8 -6 -4 -10 7 -10 24 0 29 1 30 27 20 26 -10 26 -9 10 9 -14 16 -15 19 -2 19 8 0 13 -3 10 -5 -3 -3 0 -11 6 -18 7 -8 7 -19 1 -29 -12 -22 -3 -73 9 -53 7 10 9 8 9 -6 0 -11 3 -16 7 -13 10 10 43 -23 43 -43 0 -9 9 -25 19 -34 11 -10 23 -31 26 -46 3 -16 13 -34 21 -41 8 -6 14 -19 14 -29 0 -10 6 -23 14 -29 8 -7 17 -25 21 -40 3 -16 17 -39 31 -51 13 -13 24 -31 24 -41 0 -9 7 -22 15 -29 9 -7 40 -63 70 -125 30 -61 64 -120 75 -130 11 -10 20 -26 20 -35 0 -9 9 -25 19 -34 11 -10 23 -31 26 -46 3 -16 13 -34 21 -41 8 -6 14 -19 14 -29 0 -10 6 -23 14 -29 8 -7 17 -25 21 -40 3 -16 17 -39 31 -51 13 -13 24 -31 24 -41 0 -9 7 -22 15 -29 8 -7 46 -76 85 -155 39 -78 81 -152 95 -165 13 -12 27 -35 30 -51 4 -15 13 -33 21 -40 8 -6 14 -18 14 -27 0 -8 7 -24 17 -34 9 -10 16 -32 16 -48 0 -16 4 -27 8 -25 11 7 29 -20 31 -48 1 -14 5 -25 8 -24 3 1 16 -6 30 -16 13 -9 18 -17 11 -17 -11 0 -11 -3 -1 -15 7 -8 9 -15 4 -15 -5 0 -1 -5 9 -11 14 -8 22 -8 30 0 6 6 18 11 26 11 11 0 9 -5 -7 -16 -21 -14 -33 -42 -12 -29 12 8 70 -22 70 -36 0 -6 7 -9 15 -5 8 3 14 2 14 -2 -3 -21 3 -32 17 -32 9 0 13 5 9 13 -4 6 2 2 13 -10 11 -13 25 -23 31 -23 6 0 11 -5 11 -10 0 -6 6 -10 13 -9 28 3 39 -2 33 -16 -4 -10 1 -15 16 -15 11 0 27 -8 34 -17 13 -17 14 -17 8 2 -5 14 5 8 30 -17 20 -21 44 -38 53 -38 10 0 34 -15 53 -33 43 -40 92 -44 127 -9 13 13 28 20 33 17 6 -3 10 -2 10 3 0 6 14 15 30 21 17 5 30 15 30 20 0 6 8 11 18 11 11 0 27 9 37 20 10 11 28 20 41 20 13 0 28 9 34 20 7 13 21 20 40 20 20 0 30 5 30 15 0 9 9 15 23 15 13 0 32 9 42 20 10 11 27 20 37 20 11 0 16 5 13 10 -4 6 8 13 25 17 18 3 34 12 37 19 3 8 14 14 24 14 10 0 28 9 39 20 11 11 28 20 38 20 11 0 27 9 37 20 10 11 26 20 35 20 10 0 23 7 30 15 7 8 21 15 31 15 11 0 19 7 19 15 0 9 9 15 25 15 14 0 29 8 35 20 7 13 21 20 40 20 20 0 30 5 30 15 0 9 9 15 25 15 14 0 33 9 42 20 10 11 28 20 41 20 12 0 25 7 28 15 4 8 14 15 23 15 9 0 24 9 34 20 9 11 26 20 37 20 11 0 20 7 20 15 0 8 9 15 19 15 30 0 51 11 51 26 0 9 11 14 30 14 19 0 33 7 40 20 6 11 17 17 24 14 8 -3 24 4 35 15 12 12 30 21 41 21 11 0 20 4 20 9 0 5 13 14 29 21 16 6 32 18 35 26 3 9 20 14 46 14 22 0 40 5 40 10 0 6 11 15 25 20 14 5 25 14 25 19 0 5 14 12 31 16 17 4 33 13 36 21 3 8 16 14 29 14 13 0 29 9 36 20 8 12 24 20 39 20 15 0 29 7 33 15 3 8 15 15 26 15 11 0 28 9 37 20 10 11 25 20 35 20 10 0 17 6 15 13 -1 7 10 13 27 15 18 2 30 11 33 23 4 14 14 19 39 19 24 0 34 5 34 15 0 8 9 15 19 15 30 0 51 11 51 26 0 9 11 14 30 14 18 0 33 6 36 15 4 8 13 15 20 15 8 0 17 7 20 15 3 8 21 17 40 21 19 3 34 12 34 20 0 8 10 14 25 14 14 0 30 9 37 20 8 12 24 20 39 20 15 0 29 7 33 15 3 8 15 15 26 15 11 0 28 9 37 20 10 11 25 20 35 20 10 0 18 5 18 11 0 5 13 15 29 20 16 6 32 17 35 25 3 8 19 14 36 14 20 0 30 5 30 15 0 8 9 15 19 15 30 0 51 11 51 26 0 9 11 14 30 14 18 0 33 6 36 15 4 8 12 15 19 15 6 0 22 9 35 20 13 11 31 20 42 20 10 0 18 7 18 15 0 9 9 15 25 15 14 0 30 9 37 20 7 11 24 20 38 20 15 0 31 9 38 20 7 12 16 18 21 16 4 -3 17 1 27 9 18 13 19 43 24 852 3 461 7 840 9 843 2 3 7 -6 11 -20 5 -16 8 9 9 73 1 61 -3 96 -9 92 -5 -3 -12 6 -16 20 -3 14 -12 25 -20 25 -8 0 -23 9 -35 21 -11 11 -27 18 -35 15 -7 -3 -18 3 -24 14 -6 11 -21 20 -33 20 -12 0 -30 8 -39 18 -40 40 -56 52 -71 52 -10 0 -26 9 -37 20 -11 11 -29 20 -40 20 -11 0 -20 7 -20 15 0 8 -7 15 -15 15 -8 0 -24 9 -36 21 -11 11 -27 18 -36 15 -9 -4 -17 1 -20 14 -4 14 -14 20 -32 20 -15 0 -34 8 -43 18 -40 40 -56 52 -71 52 -10 0 -26 9 -37 20 -11 11 -29 20 -40 20 -11 0 -20 7 -20 15 0 8 -7 15 -15 15 -8 0 -24 9 -36 21 -11 11 -27 18 -36 15 -9 -4 -17 1 -20 14 -3 12 -14 20 -28 20 -12 0 -32 9 -45 20 -13 11 -27 20 -32 20 -4 0 -8 7 -8 15 0 9 -9 15 -25 15 -14 0 -34 9 -45 20 -11 11 -29 20 -40 20 -11 0 -20 7 -20 15 0 8 -9 15 -20 15 -11 0 -20 7 -20 15 0 14 -6 16 -50 19 -8 1 -16 8 -18 18 -2 9 -17 19 -38 22 -18 4 -34 11 -34 16 0 5 -9 12 -20 15 -11 3 -20 13 -20 21 0 8 -10 14 -25 14 -14 0 -34 9 -45 20 -11 11 -29 20 -40 20 -11 0 -20 7 -20 15 0 8 -9 15 -20 15 -11 0 -20 7 -20 15 0 14 -6 16 -50 19 -9 1 -15 11 -16 26 -2 76 -4 80 -27 80 -23 0 -55 20 -85 53 -9 9 -24 17 -34 17 -10 0 -27 9 -38 20 -11 11 -29 20 -40 20 -11 0 -20 7 -20 15 0 8 -7 15 -15 15 -8 0 -24 9 -36 21 -11 11 -27 18 -36 15 -9 -4 -17 1 -20 13 -3 11 -17 21 -34 25 -30 6 -47 16 -77 49 -9 9 -24 17 -34 17 -10 0 -27 9 -38 20 -11 11 -29 20 -40 20 -11 0 -20 7 -20 15 0 8 -7 15 -15 15 -8 0 -24 9 -36 21 -11 11 -27 18 -36 15 -9 -4 -17 1 -20 14 -3 12 -14 20 -28 20 -12 0 -32 9 -45 20 -13 11 -27 20 -32 20 -4 0 -8 7 -8 15 0 9 -9 15 -25 15 -14 0 -34 9 -45 20 -11 11 -29 20 -40 20 -11 0 -20 7 -20 15 0 8 -9 15 -20 15 -11 0 -20 7 -20 15 0 14 -6 16 -50 19 -8 1 -16 8 -18 18 -2 9 -17 19 -38 22 -18 4 -34 11 -34 16 0 5 -9 12 -20 15 -11 3 -20 13 -20 21 0 9 -11 14 -30 14 -16 0 -30 5 -30 11 0 5 -16 17 -35 25 -19 8 -35 19 -35 24 0 6 -9 10 -20 10 -11 0 -20 7 -20 15 0 14 -6 16 -50 19 -8 1 -16 9 -18 19 -2 9 -12 17 -22 17 -10 0 -25 6 -32 14 -8 7 -24 17 -36 20 -12 4 -22 14 -22 22 0 10 -13 14 -49 14 -41 0 -51 -3 -56 -20z m415 -2817 c164 -45 260 -131 260 -236 0 -99 -54 -163 -201 -234 -117 -57 -144 -80 -135 -116 10 -42 53 -52 135 -32 38 10 77 15 85 12 22 -9 56 -67 56 -97 0 -14 -7 -36 -16 -48 -54 -77 -321 -118 -509 -78 -138 29 -175 50 -224 129 -30 49 -30 155 1 206 32 54 79 101 118 120 74 35 140 90 140 117 0 8 -12 21 -26 31 -23 14 -32 15 -77 4 -29 -6 -59 -13 -67 -15 -8 -1 -32 -8 -54 -15 -35 -12 -40 -11 -58 6 -23 23 -40 89 -31 118 15 50 50 77 148 117 90 37 340 43 455 11z m-1089 -3 c158 -27 230 -66 303 -162 68 -88 80 -130 81 -263 0 -99 -3 -126 -18 -148 -9 -14 -18 -36 -20 -47 -5 -30 -72 -106 -120 -137 -23 -15 -71 -37 -107 -50 -62 -22 -79 -23 -341 -23 -273 0 -276 0 -295 23 -61 68 -59 54 -56 397 5 446 -7 428 283 429 134 1 204 -4 290 -19z m-921 -430 c-5 -22 -8 -27 -9 -13 -1 21 9 56 14 51 2 -2 0 -19 -5 -38z"/>
 <path d="M2022 3125 c-5 -11 -6 -47 -1 -80 4 -33 8 -91 8 -130 2 -90 8 -101 52 -86 46 16 78 48 85 88 3 18 10 36 15 39 13 7 11 64 -2 64 -5 0 -7 5 -4 10 3 6 3 16 -2 23 -4 6 -8 18 -9 26 -3 19 -45 61 -55 55 -5 -3 -9 -1 -9 4 0 5 -15 9 -34 9 -25 -1 -37 -7 -44 -22z"/>
 <path d="M1581 1417 c2 -1 14 -11 27 -21 12 -11 22 -16 22 -13 0 10 -31 37 -42 37 -6 0 -9 -1 -7 -3z"/>
 <path d="M1951 1191 c13 -11 28 -17 32 -14 12 8 -9 26 -34 30 -21 3 -21 3 2 -16z"/>
 <path d="M2096 1115 c-4 -12 -2 -16 7 -12 7 3 19 -4 26 -14 6 -11 16 -17 21 -14 6 4 8 11 4 16 -3 5 -10 7 -15 4 -5 -4 -9 -2 -9 4 0 5 3 11 8 14 4 2 2 3 -4 1 -6 -1 -16 2 -21 7 -7 7 -13 5 -17 -6z"/>
 </g>
<g id="layer106" fill="#135c6b" stroke="none">
 <path d="M2745 6230 c-5 -15 -12 -19 -25 -15 -13 4 -26 -1 -37 -14 -10 -12 -28 -21 -40 -21 -12 0 -27 -9 -33 -20 -6 -11 -17 -20 -25 -20 -8 0 -15 -4 -15 -10 0 -5 -16 -12 -35 -16 -20 -3 -35 -12 -35 -20 0 -8 -9 -14 -20 -14 -11 0 -28 -9 -37 -20 -10 -11 -26 -20 -36 -20 -10 0 -27 -9 -39 -20 -12 -11 -28 -20 -35 -20 -14 0 -76 -40 -81 -52 -2 -5 -12 -8 -22 -8 -11 0 -27 -8 -37 -19 -10 -10 -30 -21 -45 -25 -16 -3 -28 -11 -28 -16 0 -5 -16 -12 -35 -16 -20 -3 -35 -12 -35 -20 0 -12 -18 -19 -41 -16 -4 1 -15 -8 -24 -18 -10 -11 -24 -20 -30 -20 -7 0 -18 -7 -25 -15 -7 -8 -21 -15 -31 -15 -19 0 -43 -33 -32 -44 3 -3 1 -6 -4 -6 -6 0 -14 6 -17 13 -3 8 -9 6 -20 -7 -9 -11 -16 -16 -16 -12 0 4 -7 0 -16 -8 -8 -9 -20 -14 -25 -11 -5 3 -18 -3 -30 -14 l-21 -20 23 6 c13 4 33 12 44 19 13 8 25 10 35 4 9 -5 19 -5 26 1 8 7 13 -2 18 -30 3 -21 13 -44 21 -51 8 -7 15 -23 15 -35 0 -13 7 -25 15 -29 8 -3 15 -14 15 -25 0 -11 8 -27 17 -37 20 -19 34 -43 56 -90 8 -17 20 -35 26 -38 6 -4 11 -14 11 -23 0 -8 9 -26 20 -40 11 -14 20 -34 20 -43 0 -10 7 -20 15 -24 8 -3 15 -17 15 -31 0 -14 7 -28 16 -32 8 -3 20 -15 25 -27 8 -20 15 -31 39 -73 6 -10 17 -32 25 -50 8 -17 19 -34 25 -38 5 -3 10 -17 10 -30 0 -12 7 -25 15 -29 8 -3 15 -14 15 -25 0 -11 8 -27 17 -37 20 -19 34 -43 56 -90 8 -17 20 -35 26 -38 6 -4 11 -14 11 -23 0 -8 9 -26 20 -40 11 -14 20 -34 20 -43 0 -10 7 -20 15 -24 8 -3 15 -17 15 -30 0 -14 6 -29 13 -33 17 -11 57 -70 57 -84 0 -6 14 -34 30 -61 l30 -48 -24 -10 c-13 -5 -25 -12 -27 -17 -6 -12 -83 -63 -96 -63 -6 0 -13 -4 -15 -8 -3 -7 -67 -48 -151 -95 -18 -10 -44 -25 -59 -35 -46 -30 -197 -117 -253 -147 -16 -9 -43 -25 -60 -35 -16 -11 -43 -27 -60 -35 -16 -8 -37 -20 -45 -25 -8 -5 -87 -50 -175 -100 -88 -50 -167 -95 -175 -101 -8 -5 -28 -16 -45 -24 -16 -9 -37 -20 -45 -25 -87 -56 -144 -81 -178 -78 l-37 3 -4 -90 c-9 -176 -9 -772 0 -706 4 35 11 71 13 78 3 8 1 11 -4 8 -6 -4 -10 7 -10 24 0 29 1 30 27 20 26 -10 26 -9 10 9 -14 16 -15 19 -2 19 8 0 13 -3 10 -5 -3 -3 0 -11 6 -18 7 -8 7 -19 1 -29 -12 -22 -3 -73 9 -53 7 10 9 8 9 -6 0 -11 3 -16 7 -13 10 10 43 -23 43 -43 0 -9 9 -25 19 -34 11 -10 23 -31 26 -46 3 -16 13 -34 21 -41 8 -6 14 -19 14 -29 0 -10 6 -23 14 -29 8 -7 17 -25 21 -40 3 -16 17 -39 31 -51 13 -13 24 -31 24 -41 0 -9 7 -22 15 -29 9 -7 40 -63 70 -125 30 -61 64 -120 75 -130 11 -10 20 -26 20 -35 0 -9 9 -25 19 -34 11 -10 23 -31 26 -46 3 -16 13 -34 21 -41 8 -6 14 -19 14 -29 0 -10 6 -23 14 -29 8 -7 17 -25 21 -40 3 -16 17 -39 31 -51 13 -13 24 -31 24 -41 0 -9 7 -22 15 -29 8 -7 46 -76 85 -155 39 -78 81 -152 95 -165 13 -12 27 -35 30 -51 4 -15 13 -33 21 -40 8 -6 14 -18 14 -27 0 -8 7 -24 17 -34 9 -10 16 -32 16 -48 0 -16 4 -27 8 -25 11 7 29 -20 31 -48 1 -14 5 -25 8 -24 3 1 16 -6 30 -16 13 -9 18 -17 11 -17 -11 0 -11 -3 -1 -15 7 -8 9 -15 4 -15 -5 0 -1 -5 9 -11 14 -8 22 -8 30 0 6 6 18 11 26 11 11 0 9 -5 -7 -16 -21 -14 -33 -42 -12 -29 12 8 70 -22 70 -36 0 -6 7 -9 15 -5 8 3 14 2 14 -2 -3 -21 3 -32 17 -32 9 0 13 5 9 13 -4 6 2 2 13 -10 11 -13 25 -23 31 -23 6 0 11 -5 11 -10 0 -6 6 -10 13 -9 28 3 39 -2 33 -16 -4 -10 1 -15 16 -15 11 0 27 -8 34 -17 13 -17 14 -17 8 2 -5 14 5 8 30 -17 20 -21 44 -38 53 -38 10 0 34 -15 53 -33 43 -40 92 -44 127 -9 13 13 28 20 33 17 6 -3 10 -2 10 3 0 6 14 15 30 21 17 5 30 15 30 20 0 6 8 11 18 11 11 0 27 9 37 20 10 11 28 20 41 20 13 0 28 9 34 20 7 13 21 20 40 20 20 0 30 5 30 15 0 9 9 15 23 15 13 0 32 9 42 20 10 11 22 20 27 20 5 0 16 7 24 15 9 8 24 15 35 15 11 0 22 7 25 15 4 8 15 15 25 15 10 0 28 9 39 20 11 11 28 20 38 20 11 0 27 9 37 20 10 11 26 20 35 20 10 0 23 7 30 15 7 8 21 15 31 15 11 0 19 7 19 15 0 9 9 15 25 15 14 0 29 8 35 20 6 12 21 20 36 20 13 0 27 6 30 14 3 8 21 17 40 20 20 4 34 13 34 21 0 9 10 15 25 15 14 0 33 9 42 20 10 11 23 20 29 20 6 0 17 7 24 15 7 8 23 15 36 15 15 0 24 6 24 15 0 8 9 15 19 15 30 0 51 11 51 26 0 9 11 14 30 14 19 0 33 7 40 20 6 11 17 17 24 14 8 -3 24 4 35 15 12 12 30 21 41 21 11 0 20 4 20 9 0 5 13 14 29 21 16 6 32 18 35 26 3 9 20 14 46 14 22 0 40 5 40 10 0 6 11 15 25 20 14 5 25 14 25 19 0 5 14 12 31 16 17 4 33 13 36 21 3 8 16 14 29 14 13 0 29 9 36 20 8 12 24 20 39 20 15 0 29 7 33 15 3 8 15 15 26 15 11 0 28 9 37 20 10 11 25 20 35 20 10 0 17 6 15 13 -1 7 10 13 27 15 18 2 30 11 33 23 4 14 14 19 39 19 24 0 34 5 34 15 0 8 9 15 19 15 30 0 51 11 51 26 0 9 11 14 30 14 18 0 33 6 36 15 4 8 13 15 20 15 8 0 17 7 20 15 3 8 21 17 40 21 19 3 34 12 34 20 0 8 10 14 25 14 14 0 30 9 37 20 8 12 24 20 39 20 15 0 29 7 33 15 3 8 15 15 26 15 11 0 28 9 37 20 10 11 25 20 35 20 10 0 18 5 18 11 0 5 13 15 29 20 16 6 32 17 35 25 3 8 19 14 36 14 20 0 30 5 30 15 0 8 9 15 19 15 30 0 51 11 51 26 0 9 11 14 30 14 18 0 33 6 36 15 4 8 12 15 19 15 6 0 22 9 35 20 13 11 31 20 42 20 10 0 18 7 18 15 0 9 9 15 25 15 14 0 30 9 37 20 7 11 24 20 38 20 15 0 31 9 38 20 7 12 16 18 21 16 4 -3 17 1 27 9 18 13 19 43 24 852 3 461 7 840 9 843 2 3 7 -6 11 -20 5 -16 8 8 9 72 1 73 -2 97 -11 95 -7 -1 -14 8 -16 21 -2 12 -10 22 -18 22 -8 0 -23 9 -35 21 -11 11 -27 18 -35 15 -7 -3 -18 3 -24 14 -6 11 -21 20 -33 20 -12 0 -30 8 -39 18 -40 40 -56 52 -71 52 -10 0 -26 9 -37 20 -11 11 -29 20 -40 20 -11 0 -20 7 -20 15 0 8 -7 15 -15 15 -8 0 -24 9 -36 21 -11 11 -27 18 -36 15 -9 -4 -17 1 -20 14 -4 14 -14 20 -32 20 -15 0 -34 8 -43 18 -40 40 -56 52 -71 52 -10 0 -26 9 -37 20 -11 11 -29 20 -40 20 -11 0 -20 7 -20 15 0 8 -7 15 -15 15 -8 0 -24 9 -36 21 -11 11 -27 18 -36 15 -9 -4 -17 1 -20 14 -3 12 -14 20 -28 20 -12 0 -32 9 -45 20 -13 11 -27 20 -32 20 -4 0 -8 7 -8 15 0 9 -9 15 -25 15 -14 0 -34 9 -45 20 -11 11 -29 20 -40 20 -11 0 -20 7 -20 15 0 8 -9 15 -20 15 -11 0 -20 7 -20 15 0 14 -6 16 -50 19 -8 1 -16 8 -18 18 -2 9 -17 19 -38 22 -18 4 -34 11 -34 16 0 5 -9 12 -20 15 -11 3 -20 13 -20 21 0 8 -10 14 -25 14 -14 0 -34 9 -45 20 -11 11 -29 20 -40 20 -11 0 -20 7 -20 15 0 8 -9 15 -20 15 -11 0 -20 7 -20 15 0 14 -6 16 -50 19 -9 1 -15 11 -16 26 -2 76 -4 80 -27 80 -23 0 -55 20 -85 53 -9 9 -24 17 -34 17 -10 0 -27 9 -38 20 -11 11 -29 20 -40 20 -11 0 -20 7 -20 15 0 8 -7 15 -15 15 -8 0 -24 9 -36 21 -11 11 -27 18 -36 15 -9 -4 -17 1 -20 13 -3 11 -17 21 -34 25 -30 6 -47 16 -77 49 -9 9 -24 17 -34 17 -10 0 -27 9 -38 20 -11 11 -29 20 -40 20 -11 0 -20 7 -20 15 0 8 -7 15 -15 15 -8 0 -24 9 -36 21 -11 11 -27 18 -36 15 -9 -4 -17 1 -20 14 -3 12 -14 20 -28 20 -12 0 -32 9 -45 20 -13 11 -27 20 -32 20 -4 0 -8 7 -8 15 0 9 -9 15 -25 15 -14 0 -34 9 -45 20 -11 11 -29 20 -40 20 -11 0 -20 7 -20 15 0 8 -9 15 -20 15 -11 0 -20 7 -20 15 0 14 -6 16 -50 19 -8 1 -16 8 -18 18 -2 9 -17 19 -38 22 -18 4 -34 11 -34 16 0 5 -9 12 -20 15 -11 3 -20 13 -20 21 0 9 -11 14 -30 14 -16 0 -30 5 -30 11 0 5 -16 17 -35 25 -19 8 -35 19 -35 24 0 6 -9 10 -20 10 -11 0 -20 7 -20 15 0 14 -6 16 -50 19 -8 1 -16 8 -18 18 -2 9 -17 19 -38 22 -18 4 -34 11 -34 16 0 5 -9 12 -20 15 -11 3 -20 13 -20 21 0 10 -13 14 -49 14 -41 0 -51 -3 -56 -20z m415 -2817 c164 -45 260 -131 260 -236 0 -99 -54 -163 -201 -234 -117 -57 -144 -80 -135 -116 10 -42 53 -52 135 -32 38 10 77 15 85 12 22 -9 56 -67 56 -97 0 -63 -77 -110 -215 -130 -155 -23 -295 -11 -428 36 -58 20 -123 90 -133 141 -11 58 2 137 30 182 27 42 91 95 129 107 46 14 127 85 127 110 0 8 -11 21 -25 30 -30 20 -86 14 -148 -16 -90 -44 -147 -12 -147 82 0 27 5 58 10 69 16 28 84 68 149 86 115 32 345 35 451 6z m-1040 -3 c149 -33 245 -106 310 -235 32 -63 46 -172 32 -257 -24 -156 -113 -259 -272 -315 -62 -22 -79 -23 -341 -23 -273 0 -276 0 -295 23 -61 68 -59 54 -56 397 5 452 -13 428 320 429 178 1 227 -2 302 -19z m-970 -430 c-5 -22 -8 -27 -9 -13 -1 21 9 56 14 51 2 -2 0 -19 -5 -38z"/>
 <path d="M2036 3137 c-16 -12 -17 -25 -10 -154 3 -78 10 -147 14 -153 10 -17 70 3 98 33 55 59 50 202 -9 252 -17 14 -34 25 -39 25 -5 0 -14 2 -22 5 -7 3 -22 0 -32 -8z"/>
 <path d="M1661 5630 c-30 -26 -14 -26 19 0 14 11 21 20 15 19 -5 0 -21 -9 -34 -19z"/>
 <path d="M1581 1417 c2 -1 14 -11 27 -21 12 -11 22 -16 22 -13 0 10 -31 37 -42 37 -6 0 -9 -1 -7 -3z"/>
 <path d="M1951 1191 c13 -11 28 -17 32 -14 12 8 -9 26 -34 30 -21 3 -21 3 2 -16z"/>
 <path d="M2096 1115 c-4 -12 -2 -16 7 -12 7 3 19 -4 26 -14 6 -11 16 -17 21 -14 6 4 8 11 4 16 -3 5 -10 7 -15 4 -5 -4 -9 -2 -9 4 0 5 3 11 8 14 4 2 2 3 -4 1 -6 -1 -16 2 -21 7 -7 7 -13 5 -17 -6z"/>
 </g>
<g id="layer107" fill="#8827b2" stroke="none">
 <path d="M4351 5214 c-29 -24 -31 -30 -32 -102 -1 -43 -3 -69 -6 -60 -2 9 -13 20 -24 23 -10 4 -19 11 -19 17 0 7 5 6 14 -1 12 -11 14 -5 12 38 -1 28 -4 53 -7 55 -6 6 -77 -28 -93 -44 -5 -5 -18 -10 -27 -10 -14 0 -111 -46 -191 -90 -41 -23 -56 -31 -113 -60 -33 -17 -91 -48 -130 -70 -38 -22 -77 -42 -85 -46 -8 -3 -22 -10 -30 -15 -8 -5 -31 -17 -50 -27 -19 -10 -71 -38 -115 -62 -90 -49 -145 -78 -260 -140 -44 -24 -118 -64 -165 -90 -47 -26 -121 -66 -165 -90 -44 -23 -92 -51 -107 -62 l-28 -19 0 -167 c0 -92 -5 -299 -11 -460 -7 -214 -7 -297 1 -307 8 -10 19 -11 43 -4 57 17 330 13 395 -6 170 -50 262 -133 262 -238 0 -99 -54 -163 -201 -234 -117 -57 -144 -80 -135 -116 10 -42 53 -52 135 -32 38 10 77 15 85 12 22 -9 56 -67 56 -97 0 -37 -25 -67 -78 -94 -52 -25 -192 -49 -292 -49 -79 0 -204 21 -243 40 -35 17 -57 11 -57 -16 0 -24 32 -57 75 -77 17 -8 44 -23 60 -33 17 -11 40 -26 52 -33 48 -27 327 -194 361 -216 21 -12 46 -27 57 -32 11 -6 32 -18 47 -28 15 -9 95 -57 178 -107 83 -49 159 -95 168 -100 9 -6 35 -21 57 -33 22 -12 52 -30 67 -40 20 -13 231 -139 346 -207 48 -28 92 -69 88 -82 -3 -8 2 -13 14 -13 11 0 20 5 20 10 0 6 11 15 25 20 14 5 25 14 25 19 0 5 14 12 31 16 17 4 33 13 36 21 3 8 16 14 29 14 13 0 29 9 36 20 8 12 24 20 39 20 15 0 29 7 33 15 3 8 15 15 26 15 11 0 28 9 37 20 10 11 25 20 35 20 10 0 17 6 15 13 -1 7 10 13 27 15 18 2 30 11 33 23 4 14 14 19 39 19 24 0 34 5 34 15 0 8 9 15 19 15 30 0 51 11 51 26 0 9 11 14 30 14 17 0 33 6 36 14 3 8 14 16 25 19 11 3 18 11 17 18 -3 13 2 14 50 17 12 1 22 9 22 17 0 9 9 15 25 15 14 0 30 9 37 20 8 12 24 20 39 20 15 0 29 7 33 15 3 8 15 15 26 15 11 0 28 9 37 20 10 11 25 20 35 20 10 0 17 5 16 11 -2 7 10 15 25 20 16 4 34 15 41 25 7 9 25 17 40 17 19 0 26 4 22 13 -5 13 6 19 28 15 18 -4 46 11 46 25 0 14 10 18 42 15 9 -1 22 7 28 18 6 12 14 20 18 20 18 -3 32 2 32 12 0 5 -5 7 -12 3 -7 -4 -8 -3 -4 4 4 6 13 9 20 6 8 -3 17 -1 20 5 4 6 13 8 21 4 9 -3 15 1 15 11 0 9 7 16 15 16 8 0 24 9 35 20 11 11 32 20 46 20 17 0 28 6 31 20 3 13 14 20 28 20 35 0 43 19 45 100 6 279 10 1314 6 1309 -3 -3 -7 -192 -8 -420 -1 -228 -4 -399 -6 -381 -3 34 -16 42 -26 17 -8 -23 -23 -18 -30 10 -4 14 -11 25 -16 25 -6 0 -10 16 -10 36 0 20 -4 33 -10 29 -5 -3 -16 10 -24 28 -8 19 -19 38 -25 41 -6 4 -11 18 -11 31 0 13 -4 26 -9 30 -6 3 -22 31 -37 63 -14 31 -42 76 -60 99 -19 23 -34 48 -34 56 0 8 -7 20 -15 27 -8 7 -15 18 -15 25 0 22 -90 188 -119 220 -10 11 -22 30 -25 42 -4 11 -13 27 -21 33 -8 7 -15 23 -15 36 0 12 -4 25 -9 29 -6 3 -22 31 -37 63 -14 31 -42 76 -60 99 -19 23 -34 50 -34 61 0 11 -7 22 -15 26 -8 3 -15 12 -15 20 0 23 -89 188 -119 221 -10 11 -22 30 -25 42 -4 11 -13 27 -21 33 -8 7 -15 23 -15 36 0 12 -4 25 -9 28 -10 6 -51 87 -51 100 0 4 -18 29 -40 55 -22 26 -40 54 -40 63 0 9 -7 21 -15 28 -13 11 -13 15 -3 21 9 6 8 9 -6 9 -15 0 -16 3 -6 15 11 13 10 14 -5 9 -13 -5 -16 -4 -11 4 4 7 2 12 -4 12 -7 0 -10 6 -7 14 3 8 1 17 -6 20 -7 3 2 3 19 1 22 -3 31 -1 31 10 0 8 -4 12 -8 9 -4 -2 -14 4 -21 15 -10 15 -15 16 -25 6 -6 -7 -9 -16 -6 -19 4 -3 -1 -6 -10 -6 -22 0 -22 16 -1 24 27 10 -13 49 -43 41 -13 -3 -24 -1 -24 5 -1 5 -2 16 -3 23 -1 6 -11 11 -24 11 -12 -1 -22 3 -22 9 0 6 -3 8 -6 5 -3 -4 -14 2 -25 13 -11 11 -24 17 -29 14 -5 -3 -12 4 -15 16 -5 15 -10 18 -18 10 -15 -15 -48 5 -40 26 5 12 2 15 -10 10 -9 -3 -17 -2 -17 3 0 5 -7 7 -15 4 -9 -4 -18 2 -24 17 -5 13 -10 20 -10 16 -1 -4 -11 -2 -23 5 -13 7 -27 11 -31 10 -5 -1 -6 2 -3 7 14 22 -15 19 -43 -5z m1509 -2291 c0 -28 -3 -34 -10 -23 -13 20 -13 60 0 60 6 0 10 -17 10 -37z"/>
 <path d="M4920 4910 c0 -5 10 -15 23 -21 22 -12 22 -12 3 10 -21 23 -26 26 -26 11z"/>
 <path d="M5100 4795 c0 -8 7 -15 16 -15 14 0 14 3 4 15 -7 8 -14 15 -16 15 -2 0 -4 -7 -4 -15z"/>
 <path d="M5270 4700 c0 -5 10 -15 23 -21 22 -12 22 -12 3 10 -21 23 -26 26 -26 11z"/>
 <path d="M5882 4270 c0 -19 2 -27 5 -17 2 9 2 25 0 35 -3 9 -5 1 -5 -18z"/>
 <path d="M2740 3187 c-34 -12 -35 -13 -38 -71 -4 -80 0 -89 35 -73 63 27 133 87 133 113 0 19 -40 44 -70 43 -14 0 -41 -5 -60 -12z"/>
 </g>

</svg>