<!DOCTYPE svg PUBLIC "-//W3C//DTD SVG 20010904//EN" "http://www.w3.org/TR/2001/REC-SVG-20010904/DTD/svg10.dtd">
<svg version="1.0" xmlns="http://www.w3.org/2000/svg" width="200px" height="200px" viewBox="0 0 2000 2000" preserveAspectRatio="xMidYMid meet">
<g id="layer101" fill="#010203" stroke="none">
 <path d="M825 1881 c-251 -66 -443 -220 -558 -448 -15 -28 -39 -91 -53 -140 -24 -77 -27 -106 -28 -228 -1 -169 14 -236 84 -380 107 -222 302 -381 545 -446 106 -29 308 -31 408 -5 328 85 567 334 632 655 21 102 16 302 -10 396 -24 88 -98 231 -158 305 -116 142 -283 248 -457 290 -113 27 -304 27 -405 1z"/>
 </g>
<g id="layer102" fill="#1f3f5b" stroke="none">
 <path d="M825 1881 c-251 -66 -443 -220 -558 -448 -15 -28 -39 -91 -53 -140 -24 -77 -27 -106 -28 -228 -1 -169 14 -236 84 -380 107 -222 302 -381 545 -446 106 -29 308 -31 408 -5 328 85 567 334 632 655 21 102 16 302 -10 396 -24 88 -98 231 -158 305 -116 142 -283 248 -457 290 -113 27 -304 27 -405 1z m743 -633 l2 -278 -190 0 -190 0 0 273 c0 151 3 277 7 281 4 3 88 5 187 4 l181 -3 3 -277z m-773 157 l0 -110 -150 0 -150 0 -3 99 c-1 55 0 106 2 113 4 11 37 13 153 11 l148 -3 0 -110z m353 -97 l2 -208 -155 0 -155 0 0 203 c0 112 3 207 7 211 4 3 72 5 152 4 l146 -3 3 -207z m420 -510 l-3 -143 -185 0 -185 0 -3 143 -3 142 191 0 191 0 -3 -142z"/>
 <path d="M1210 1026 c0 -13 12 -16 56 -16 73 0 70 24 -4 28 -42 2 -52 0 -52 -12z"/>
 <path d="M510 1405 l0 -85 105 0 105 0 0 85 0 85 -105 0 -105 0 0 -85z"/>
 <path d="M730 1480 c0 -5 14 -10 30 -10 17 0 30 5 30 10 0 6 -13 10 -30 10 -16 0 -30 -4 -30 -10z"/>
 <path d="M739 1448 c-1 -2 -2 -20 -3 -40 -2 -35 0 -38 26 -38 26 0 28 3 28 40 0 36 -2 40 -25 40 -14 0 -25 -1 -26 -2z"/>
 <path d="M732 1343 c2 -11 14 -19 31 -21 22 -3 27 1 27 17 0 17 -6 21 -31 21 -24 0 -30 -4 -27 -17z"/>
 <path d="M855 1490 c4 -6 62 -10 140 -10 78 0 136 4 140 10 4 6 -45 10 -140 10 -95 0 -144 -4 -140 -10z"/>
 <path d="M942 1424 c-108 -55 -65 -224 56 -224 43 0 95 39 109 83 33 99 -71 188 -165 141z"/>
 <path d="M850 1145 l0 -35 145 0 145 0 0 35 0 35 -145 0 -145 0 0 -35z m210 0 c0 -8 -4 -15 -10 -15 -5 0 -10 7 -10 15 0 8 5 15 10 15 6 0 10 -7 10 -15z m50 0 c0 -8 -4 -15 -10 -15 -5 0 -10 7 -10 15 0 8 5 15 10 15 6 0 10 -7 10 -15z"/>
 <path d="M1210 906 c0 -13 12 -16 56 -16 73 0 70 24 -4 28 -42 2 -52 0 -52 -12z"/>
 </g>
<g id="layer103" fill="#f22f1a" stroke="none">
 <path d="M825 1881 c-251 -66 -443 -220 -558 -448 -15 -28 -39 -91 -53 -140 -24 -77 -27 -106 -28 -228 -1 -169 14 -236 84 -380 107 -222 302 -381 545 -446 106 -29 308 -31 408 -5 328 85 567 334 632 655 21 102 16 302 -10 396 -24 88 -98 231 -158 305 -116 142 -283 248 -457 290 -113 27 -304 27 -405 1z m745 -631 l0 -280 -190 0 -190 0 0 280 0 280 190 0 190 0 0 -280z m-765 155 l0 -110 -160 0 -160 0 -3 99 c-1 55 0 106 2 113 4 11 38 13 163 11 l158 -3 0 -110z m353 -89 c2 -140 -1 -203 -9 -212 -9 -12 -42 -14 -158 -12 l-146 3 -3 213 -2 213 157 -3 158 -3 3 -199z m412 -521 l0 -145 -190 0 -190 0 0 145 0 145 190 0 190 0 0 -145z"/>
 <path d="M1210 1020 c0 -5 23 -10 50 -10 28 0 50 5 50 10 0 6 -22 10 -50 10 -27 0 -50 -4 -50 -10z"/>
 <path d="M510 1405 l0 -85 105 0 105 0 0 85 0 85 -105 0 -105 0 0 -85z m125 5 c38 -38 67 -70 64 -70 -2 0 -36 32 -74 70 -38 39 -67 70 -64 70 2 0 36 -31 74 -70z m-35 -15 c30 -30 52 -55 49 -55 -2 0 -29 25 -59 55 -30 30 -52 55 -49 55 2 0 29 -25 59 -55z"/>
 <path d="M740 1480 c0 -5 9 -10 19 -10 11 0 23 5 26 10 4 6 -5 10 -19 10 -14 0 -26 -4 -26 -10z"/>
 <path d="M740 1340 c0 -16 5 -21 23 -18 12 2 22 10 22 18 0 8 -10 16 -22 18 -18 3 -23 -2 -23 -18z"/>
 <path d="M922 1493 c37 -2 100 -2 140 0 40 1 10 3 -67 3 -77 0 -110 -1 -73 -3z"/>
 <path d="M928 1410 c-79 -62 -49 -183 51 -205 40 -8 98 19 116 56 26 49 19 97 -19 135 -29 29 -41 34 -79 34 -29 0 -53 -7 -69 -20z m131 -16 c73 -61 34 -173 -61 -174 -72 0 -121 70 -93 136 27 66 100 84 154 38z"/>
 <path d="M949 1395 c-38 -20 -52 -67 -35 -110 25 -59 93 -74 143 -31 22 19 28 32 28 66 0 73 -70 111 -136 75z m101 -112 c0 -8 -9 0 -50 45 l-45 47 48 -45 c26 -24 47 -45 47 -47z m-70 32 c19 -19 32 -35 29 -35 -3 0 -20 16 -39 35 -19 19 -32 35 -29 35 3 0 20 -16 39 -35z"/>
 <path d="M860 1140 l0 -30 140 0 140 0 0 30 0 30 -140 0 -140 0 0 -30z m206 9 c10 -17 -13 -36 -27 -22 -12 12 -4 33 11 33 5 0 12 -5 16 -11z m50 0 c10 -17 -13 -36 -27 -22 -12 12 -4 33 11 33 5 0 12 -5 16 -11z"/>
 <path d="M1210 900 c0 -5 23 -10 50 -10 28 0 50 5 50 10 0 6 -22 10 -50 10 -27 0 -50 -4 -50 -10z"/>
 </g>
<g id="layer104" fill="#366b9a" stroke="none">
 <path d="M825 1881 c-251 -66 -443 -220 -558 -448 -15 -28 -39 -91 -53 -140 -24 -77 -27 -106 -28 -228 -1 -169 14 -236 84 -380 107 -222 302 -381 545 -446 106 -29 308 -31 408 -5 328 85 567 334 632 655 21 102 16 302 -10 396 -24 88 -98 231 -158 305 -116 142 -283 248 -457 290 -113 27 -304 27 -405 1z m745 -631 l0 -280 -190 0 -190 0 0 280 0 280 190 0 190 0 0 -280z m-765 155 l0 -110 -160 0 -160 0 -3 99 c-1 55 0 106 2 113 4 11 38 13 163 11 l158 -3 0 -110z m353 -89 c2 -140 -1 -203 -9 -212 -9 -12 -42 -14 -158 -12 l-146 3 -3 213 -2 213 157 -3 158 -3 3 -199z m-702 -251 c26 -18 54 -74 54 -109 0 -16 -9 -31 -25 -42 -14 -9 -25 -23 -25 -30 0 -8 -10 -14 -25 -14 -33 0 -75 -20 -75 -36 0 -18 -35 -35 -55 -27 -16 5 -16 7 -1 15 9 5 16 15 16 22 0 6 21 22 46 34 33 16 44 27 40 38 -3 9 -6 20 -6 25 0 5 -13 3 -30 -6 -16 -9 -30 -13 -30 -11 0 3 14 12 30 21 29 15 31 15 40 -10 6 -15 10 -34 11 -43 0 -14 2 -14 6 -2 3 8 17 25 30 37 12 12 23 29 23 38 0 24 -38 93 -57 104 -15 8 -15 10 -3 11 9 0 25 -7 36 -15z m-66 -41 c0 -10 7 -13 25 -8 19 5 25 2 25 -10 0 -10 -9 -16 -23 -16 -16 0 -27 10 -39 35 -12 28 -13 33 -2 24 8 -6 14 -18 14 -25z m1180 -229 l0 -145 -190 0 -190 0 0 145 0 145 190 0 190 0 0 -145z m-1252 114 c-12 -7 -24 -7 -35 0 -15 9 -12 10 17 10 29 0 32 -1 18 -10z m-46 -44 c9 -20 9 -20 -6 -1 -9 11 -16 27 -15 35 0 14 1 14 6 1 3 -8 10 -24 15 -35z m314 -22 c38 -42 40 -66 6 -71 -24 -4 -30 -30 -10 -50 9 -9 9 -12 -3 -12 -9 0 -24 9 -33 19 -22 24 -13 61 15 61 10 0 19 7 19 15 0 8 -4 15 -8 15 -5 0 -18 14 -30 30 -34 45 0 40 44 -7z m-81 -33 c-3 -5 -13 -10 -20 -10 -8 0 -12 -6 -9 -13 3 -8 -3 -20 -13 -28 -16 -13 -17 -12 -5 2 7 9 10 23 6 32 -4 11 2 17 18 20 13 2 24 5 26 6 2 0 0 -3 -3 -9z m163 -60 c2 -4 14 -20 28 -35 28 -31 23 -42 -21 -47 -16 -2 -29 -8 -28 -15 3 -13 -32 -28 -45 -20 -13 9 -53 -18 -65 -44 -8 -16 -22 -25 -42 -27 -25 -2 -27 -1 -12 8 9 6 17 16 17 23 0 20 86 67 99 54 8 -8 11 -7 11 6 0 20 33 39 54 31 23 -9 20 2 -11 42 -33 40 -43 43 -44 12 0 -22 -1 -22 -8 -3 -5 12 -4 23 3 28 13 8 60 -1 64 -13z m-229 -26 c-7 -9 -24 -20 -37 -25 -14 -5 -20 -14 -16 -21 4 -7 3 -8 -5 -4 -15 10 0 30 38 50 35 19 36 19 20 0z m85 -23 c12 -13 14 -21 6 -26 -6 -3 -9 -2 -8 3 2 6 -1 9 -7 9 -5 -1 -9 -8 -8 -15 0 -7 -1 -11 -4 -8 -3 3 -12 -2 -21 -10 -27 -27 -37 1 -13 35 26 36 32 37 55 12z m-94 -76 c19 -19 32 -35 29 -35 -3 0 -20 16 -39 35 -19 19 -32 35 -29 35 3 0 20 -16 39 -35z m365 25 c3 -5 15 -10 26 -10 29 0 36 -30 11 -49 -15 -11 -20 -23 -16 -38 4 -16 1 -25 -10 -29 -9 -3 -16 -14 -16 -25 0 -10 -9 -23 -20 -29 -11 -6 -20 -9 -20 -7 0 15 23 67 30 67 4 0 6 9 3 19 -3 11 4 28 16 40 27 27 26 31 -3 31 -14 0 -28 5 -31 10 -10 16 -38 12 -32 -4 4 -10 1 -13 -9 -9 -13 5 -13 8 2 24 18 20 59 25 69 9z m182 -57 c12 -3 28 -12 35 -20 10 -13 8 -19 -15 -37 -22 -18 -25 -24 -15 -35 11 -10 8 -16 -11 -32 -20 -16 -25 -30 -26 -67 -1 -54 -9 -72 -32 -72 -13 0 -13 3 -3 15 9 11 10 19 3 26 -8 8 -7 24 4 56 13 38 13 47 2 54 -25 15 -36 10 -46 -23 l-10 -33 -17 38 c-12 26 -22 37 -32 33 -7 -3 -14 -3 -14 -1 0 9 43 27 73 30 30 4 31 3 13 -10 -20 -15 -20 -15 0 -15 11 0 29 -7 40 -15 25 -19 40 -19 25 -1 -16 19 2 56 26 56 26 0 1 21 -42 36 -33 11 -58 3 -35 -11 5 -3 10 -11 10 -18 0 -6 -7 -1 -16 11 -9 13 -14 25 -13 26 19 15 47 24 59 19 8 -3 25 -8 37 -10z m-253 -25 c-17 -19 -17 -21 -2 -15 10 3 20 1 24 -5 4 -7 3 -8 -5 -4 -6 4 -14 0 -18 -10 -5 -15 -8 -14 -15 6 -6 17 -4 28 8 42 10 10 19 16 22 13 3 -3 -3 -15 -14 -27z m622 20 c4 -5 0 -21 -7 -35 -11 -20 -11 -26 1 -33 11 -7 12 -14 2 -35 -17 -36 -15 -82 3 -89 34 -13 9 -67 -29 -65 -17 1 -18 2 -3 6 18 5 24 33 8 33 -6 0 -11 24 -13 52 -3 49 -5 53 -28 52 -23 0 -25 -3 -22 -39 l4 -40 -35 33 -34 33 -25 -31 -25 -32 -7 36 c-7 34 -9 36 -39 31 -22 -4 -27 -2 -18 4 8 5 28 7 44 5 23 -3 28 -1 19 8 -17 17 -15 48 3 54 27 11 6 23 -38 22 -53 0 -63 -6 -40 -23 17 -13 16 -14 -4 -8 -27 6 -28 12 -9 38 18 25 114 32 123 9 3 -8 -2 -23 -12 -33 -15 -18 -15 -20 2 -30 15 -8 16 -13 6 -30 -20 -33 -14 -48 8 -22 21 26 69 55 69 42 0 -4 -5 -12 -12 -19 -9 -9 -9 -12 -1 -12 7 0 14 4 17 8 6 10 36 9 53 -1 6 -4 14 -3 17 2 3 5 -1 11 -9 15 -8 3 -15 15 -15 26 0 11 7 23 15 26 26 10 7 21 -40 22 -47 0 -54 -5 -32 -27 10 -10 9 -11 -5 -6 -22 9 -23 23 -3 45 17 19 101 25 111 8z m-660 -134 c-11 -7 -22 -11 -25 -8 -3 3 3 12 13 20 11 7 22 11 25 8 3 -3 -3 -12 -13 -20z m130 -16 c4 -6 3 -8 -3 -5 -5 3 -27 -5 -47 -19 -21 -14 -40 -24 -42 -21 -4 4 73 56 83 57 1 0 5 -5 9 -12z m265 -76 c-25 -8 -10 -32 20 -32 24 0 40 9 65 38 l33 37 38 -40 38 -40 -38 35 -38 35 -24 -30 c-13 -17 -24 -33 -25 -37 0 -5 -20 -8 -45 -8 -50 0 -54 8 -32 69 l12 35 3 -29 c2 -16 -1 -31 -7 -33z"/>
 <path d="M1210 1020 c0 -5 23 -10 50 -10 28 0 50 5 50 10 0 6 -22 10 -50 10 -27 0 -50 -4 -50 -10z"/>
 <path d="M510 1405 l0 -85 105 0 105 0 0 85 0 85 -105 0 -105 0 0 -85z m125 5 c38 -38 67 -70 64 -70 -2 0 -36 32 -74 70 -38 39 -67 70 -64 70 2 0 36 -31 74 -70z m-35 -15 c30 -30 52 -55 49 -55 -2 0 -29 25 -59 55 -30 30 -52 55 -49 55 2 0 29 -25 59 -55z"/>
 <path d="M740 1480 c0 -5 9 -10 19 -10 11 0 23 5 26 10 4 6 -5 10 -19 10 -14 0 -26 -4 -26 -10z"/>
 <path d="M740 1340 c0 -16 5 -21 23 -18 12 2 22 10 22 18 0 8 -10 16 -22 18 -18 3 -23 -2 -23 -18z"/>
 <path d="M922 1493 c37 -2 100 -2 140 0 40 1 10 3 -67 3 -77 0 -110 -1 -73 -3z"/>
 <path d="M928 1410 c-79 -62 -49 -183 51 -205 40 -8 98 19 116 56 26 49 19 97 -19 135 -29 29 -41 34 -79 34 -29 0 -53 -7 -69 -20z m131 -16 c73 -61 34 -173 -61 -174 -72 0 -121 70 -93 136 27 66 100 84 154 38z"/>
 <path d="M949 1395 c-38 -20 -52 -67 -35 -110 25 -59 93 -74 143 -31 22 19 28 32 28 66 0 73 -70 111 -136 75z m101 -112 c0 -8 -9 0 -50 45 l-45 47 48 -45 c26 -24 47 -45 47 -47z m-70 32 c19 -19 32 -35 29 -35 -3 0 -20 16 -39 35 -19 19 -32 35 -29 35 3 0 20 -16 39 -35z"/>
 <path d="M860 1140 l0 -30 140 0 140 0 0 30 0 30 -140 0 -140 0 0 -30z m206 9 c10 -17 -13 -36 -27 -22 -12 12 -4 33 11 33 5 0 12 -5 16 -11z m50 0 c10 -17 -13 -36 -27 -22 -12 12 -4 33 11 33 5 0 12 -5 16 -11z"/>
 <path d="M1210 900 c0 -5 23 -10 50 -10 28 0 50 5 50 10 0 6 -22 10 -50 10 -27 0 -50 -4 -50 -10z"/>
 </g>
<g id="layer105" fill="#d04a4f" stroke="none">
 <path d="M824 1880 c-365 -95 -616 -395 -641 -766 -27 -403 239 -771 632 -875 104 -28 297 -30 400 -6 328 80 575 332 640 656 27 133 17 308 -24 431 -77 227 -217 390 -426 495 -125 62 -229 85 -385 84 -88 0 -146 -6 -196 -19z m746 -630 l0 -280 -195 0 -195 0 0 264 c0 145 3 271 6 280 5 14 32 16 195 16 l189 0 0 -280z m-760 155 l0 -115 -162 2 -163 3 -3 99 c-1 55 0 106 2 113 4 10 42 13 166 13 l160 0 0 -115z m345 -100 l0 -210 -154 -3 c-117 -2 -156 1 -163 10 -9 16 -11 402 -1 412 4 3 77 5 162 4 l156 -3 0 -210z m-699 -240 c26 -18 54 -74 54 -109 0 -16 -9 -31 -25 -42 -14 -9 -25 -23 -25 -30 0 -8 -10 -14 -25 -14 -33 0 -75 -20 -75 -36 0 -18 -35 -35 -55 -27 -16 5 -16 7 -1 15 9 5 16 15 16 22 0 6 21 22 46 34 33 16 44 27 40 38 -3 9 -6 20 -6 25 0 5 -13 3 -30 -6 -16 -9 -30 -13 -30 -11 0 3 14 12 30 21 29 15 31 15 40 -10 6 -15 10 -34 11 -43 0 -14 2 -14 6 -2 3 8 17 25 30 37 12 12 23 29 23 38 0 24 -38 93 -57 104 -15 8 -15 10 -3 11 9 0 25 -7 36 -15z m-66 -41 c0 -10 7 -13 25 -8 19 5 25 2 25 -10 0 -10 -9 -16 -23 -16 -16 0 -27 10 -39 35 -12 28 -13 33 -2 24 8 -6 14 -18 14 -25z m1178 -231 l-3 -148 -179 -3 c-123 -2 -183 1 -192 9 -11 9 -14 44 -14 150 l0 139 195 0 196 0 -3 -147z m-1250 116 c-12 -7 -24 -7 -35 0 -15 9 -12 10 17 10 29 0 32 -1 18 -10z m-46 -44 c9 -20 9 -20 -6 -1 -9 11 -16 27 -15 35 0 14 1 14 6 1 3 -8 10 -24 15 -35z m314 -22 c38 -42 40 -66 6 -71 -24 -4 -30 -30 -10 -50 9 -9 9 -12 -3 -12 -9 0 -24 9 -33 19 -22 24 -13 61 15 61 10 0 19 7 19 15 0 8 -4 15 -8 15 -5 0 -18 14 -30 30 -34 45 0 40 44 -7z m-81 -33 c-3 -5 -13 -10 -20 -10 -8 0 -12 -6 -9 -13 3 -8 -3 -20 -13 -28 -16 -13 -17 -12 -5 2 7 9 10 23 6 32 -4 11 2 17 18 20 13 2 24 5 26 6 2 0 0 -3 -3 -9z m163 -60 c2 -4 14 -20 28 -35 28 -31 23 -42 -21 -47 -16 -2 -29 -8 -28 -15 3 -13 -32 -28 -45 -20 -13 9 -53 -18 -65 -44 -8 -16 -22 -25 -42 -27 -25 -2 -27 -1 -12 8 9 6 17 16 17 23 0 20 86 67 99 54 8 -8 11 -7 11 6 0 20 33 39 54 31 23 -9 20 2 -11 42 -33 40 -43 43 -44 12 0 -22 -1 -22 -8 -3 -5 12 -4 23 3 28 13 8 60 -1 64 -13z m-229 -26 c-7 -9 -24 -20 -37 -25 -14 -5 -20 -14 -16 -21 4 -7 3 -8 -5 -4 -15 10 0 30 38 50 35 19 36 19 20 0z m85 -23 c12 -13 14 -21 6 -26 -6 -3 -9 -2 -8 3 2 6 -1 9 -7 9 -5 -1 -9 -8 -8 -15 0 -7 -1 -11 -4 -8 -3 3 -12 -2 -21 -10 -27 -27 -37 1 -13 35 26 36 32 37 55 12z m-94 -76 c19 -19 32 -35 29 -35 -3 0 -20 16 -39 35 -19 19 -32 35 -29 35 3 0 20 -16 39 -35z m365 25 c3 -5 15 -10 26 -10 29 0 36 -30 11 -49 -15 -11 -20 -23 -16 -38 4 -16 1 -25 -10 -29 -9 -3 -16 -14 -16 -25 0 -10 -9 -23 -20 -29 -11 -6 -20 -9 -20 -7 0 15 23 67 30 67 4 0 6 9 3 19 -3 11 4 28 16 40 27 27 26 31 -3 31 -14 0 -28 5 -31 10 -10 16 -38 12 -32 -4 4 -10 1 -13 -9 -9 -13 5 -13 8 2 24 18 20 59 25 69 9z m182 -57 c12 -3 28 -12 35 -20 10 -13 8 -19 -15 -37 -22 -18 -25 -24 -15 -35 11 -10 8 -16 -11 -32 -20 -16 -25 -30 -26 -67 -1 -54 -9 -72 -32 -72 -13 0 -13 3 -3 15 9 11 10 19 3 26 -8 8 -7 24 4 56 13 38 13 47 2 54 -25 15 -36 10 -46 -23 l-10 -33 -17 38 c-12 26 -22 37 -32 33 -7 -3 -14 -3 -14 -1 0 9 43 27 73 30 30 4 31 3 13 -10 -20 -15 -20 -15 0 -15 11 0 29 -7 40 -15 25 -19 40 -19 25 -1 -16 19 2 56 26 56 26 0 1 21 -42 36 -33 11 -58 3 -35 -11 5 -3 10 -11 10 -18 0 -6 -7 -1 -16 11 -9 13 -14 25 -13 26 19 15 47 24 59 19 8 -3 25 -8 37 -10z m-253 -25 c-17 -19 -17 -21 -2 -15 10 3 20 1 24 -5 4 -7 3 -8 -5 -4 -6 4 -14 0 -18 -10 -5 -15 -8 -14 -15 6 -6 17 -4 28 8 42 10 10 19 16 22 13 3 -3 -3 -15 -14 -27z m622 20 c4 -5 0 -21 -7 -35 -11 -20 -11 -26 1 -33 11 -7 12 -14 2 -35 -17 -36 -15 -82 3 -89 34 -13 9 -67 -29 -65 -17 1 -18 2 -3 6 18 5 24 33 8 33 -6 0 -11 24 -13 52 -3 49 -5 53 -28 52 -23 0 -25 -3 -22 -39 l4 -40 -35 33 -34 33 -25 -31 -25 -32 -7 36 c-7 34 -9 36 -39 31 -22 -4 -27 -2 -18 4 8 5 28 7 44 5 23 -3 28 -1 19 8 -17 17 -15 48 3 54 27 11 6 23 -38 22 -53 0 -63 -6 -40 -23 17 -13 16 -14 -4 -8 -27 6 -28 12 -9 38 18 25 114 32 123 9 3 -8 -2 -23 -12 -33 -15 -18 -15 -20 2 -30 15 -8 16 -13 6 -30 -20 -33 -14 -48 8 -22 21 26 69 55 69 42 0 -4 -5 -12 -12 -19 -9 -9 -9 -12 -1 -12 7 0 14 4 17 8 6 10 36 9 53 -1 6 -4 14 -3 17 2 3 5 -1 11 -9 15 -8 3 -15 15 -15 26 0 11 7 23 15 26 26 10 7 21 -40 22 -47 0 -54 -5 -32 -27 10 -10 9 -11 -5 -6 -22 9 -23 23 -3 45 17 19 101 25 111 8z m-660 -134 c-11 -7 -22 -11 -25 -8 -3 3 3 12 13 20 11 7 22 11 25 8 3 -3 -3 -12 -13 -20z m130 -16 c4 -6 3 -8 -3 -5 -5 3 -27 -5 -47 -19 -21 -14 -40 -24 -42 -21 -4 4 73 56 83 57 1 0 5 -5 9 -12z m265 -76 c-25 -8 -10 -32 20 -32 24 0 40 9 65 38 l33 37 38 -40 38 -40 -38 35 -38 35 -24 -30 c-13 -17 -24 -33 -25 -37 0 -5 -20 -8 -45 -8 -50 0 -54 8 -32 69 l12 35 3 -29 c2 -16 -1 -31 -7 -33z"/>
 <path d="M1220 1020 c0 -5 20 -10 45 -10 25 0 45 5 45 10 0 6 -20 10 -45 10 -25 0 -45 -4 -45 -10z"/>
 <path d="M520 1410 l0 -80 100 0 100 0 0 80 0 80 -100 0 -100 0 0 -80z m174 -69 c-6 -6 -134 120 -134 133 0 6 31 -21 70 -59 38 -38 67 -71 64 -74z m-94 54 c30 -30 50 -55 44 -55 -5 0 -34 25 -64 55 -30 30 -50 55 -44 55 5 0 34 -25 64 -55z"/>
 <path d="M740 1480 c0 -5 9 -10 20 -10 11 0 20 5 20 10 0 6 -9 10 -20 10 -11 0 -20 -4 -20 -10z"/>
 <path d="M740 1340 c0 -5 9 -10 20 -10 11 0 20 5 20 10 0 6 -9 10 -20 10 -11 0 -20 -4 -20 -10z"/>
 <path d="M934 1411 c-31 -19 -60 -77 -51 -104 2 -6 7 4 11 24 8 47 46 81 99 90 41 6 41 7 7 8 -19 0 -49 -8 -66 -18z"/>
 <path d="M1061 1398 c64 -60 45 -153 -37 -178 -25 -7 -26 -8 -7 -9 37 -2 83 48 89 94 5 31 1 48 -18 74 -12 19 -30 37 -38 39 -8 3 -3 -6 11 -20z"/>
 <path d="M941 1384 c-81 -68 7 -193 101 -143 55 29 53 125 -3 154 -40 21 -63 19 -98 -11z m64 -54 c27 -27 47 -50 44 -50 -3 0 -27 23 -54 50 -27 28 -47 50 -44 50 3 0 27 -22 54 -50z m10 -49 c-7 -6 -75 60 -75 73 0 6 18 -7 40 -29 22 -21 37 -41 35 -44z"/>
 <path d="M890 1282 c0 -23 57 -72 82 -71 18 1 16 3 -10 10 -20 6 -40 22 -52 42 -11 18 -20 26 -20 19z"/>
 <path d="M860 1140 l0 -30 135 0 135 0 0 30 0 30 -135 0 -135 0 0 -30z m208 3 c-2 -10 -10 -18 -18 -18 -8 0 -16 8 -18 18 -2 12 3 17 18 17 15 0 20 -5 18 -17z m50 0 c-2 -10 -10 -18 -18 -18 -8 0 -16 8 -18 18 -2 12 3 17 18 17 15 0 20 -5 18 -17z m-198 -1 c0 -4 -11 -9 -25 -10 -14 -1 -25 3 -25 8 0 6 11 10 25 10 14 0 25 -4 25 -8z"/>
 <path d="M1220 900 c0 -5 20 -10 45 -10 25 0 45 5 45 10 0 6 -20 10 -45 10 -25 0 -45 -4 -45 -10z"/>
 </g>
<g id="layer106" fill="#b55d73" stroke="none">
 <path d="M824 1880 c-365 -95 -616 -395 -641 -766 -27 -403 239 -771 632 -875 104 -28 297 -30 400 -6 328 80 575 332 640 656 27 133 17 308 -24 431 -77 227 -217 390 -426 495 -125 62 -229 85 -385 84 -88 0 -146 -6 -196 -19z m746 -630 l0 -280 -195 0 -195 0 0 264 c0 145 3 271 6 280 5 14 32 16 195 16 l189 0 0 -280z m-760 155 l0 -115 -162 2 -163 3 -3 99 c-1 55 0 106 2 113 4 10 42 13 166 13 l160 0 0 -115z m345 -100 l0 -210 -154 -3 c-117 -2 -156 1 -163 10 -9 16 -11 402 -1 412 4 3 77 5 162 4 l156 -3 0 -210z m-720 -229 c41 -17 75 -68 75 -111 -1 -36 -50 -95 -79 -95 -30 0 -71 -21 -71 -36 0 -17 -37 -37 -56 -30 -8 3 -24 26 -36 51 -25 50 -18 65 30 65 28 0 102 37 102 50 0 6 10 10 23 10 21 -1 21 -1 4 -14 -15 -11 -17 -22 -11 -52 6 -34 8 -36 15 -16 5 12 15 25 23 28 41 16 15 112 -38 145 -37 23 -29 25 19 5z m-59 -5 c-3 -5 0 -20 7 -35 10 -18 17 -22 24 -15 14 14 33 3 33 -17 0 -8 -10 -14 -23 -14 -17 0 -27 10 -40 38 -20 45 -21 52 -6 52 5 0 8 -4 5 -9z m1192 -278 l-3 -148 -179 -3 c-123 -2 -183 1 -192 9 -11 9 -14 44 -14 150 l0 139 195 0 196 0 -3 -147z m-980 50 c37 -42 38 -66 4 -71 -17 -3 -22 -9 -20 -23 3 -21 24 -22 22 -1 -2 15 40 27 59 15 25 -14 69 -72 62 -83 -3 -5 -19 -10 -34 -10 -21 0 -30 -6 -34 -21 -4 -15 -12 -20 -30 -17 -32 4 -70 -17 -82 -45 -18 -40 -55 -28 -114 36 -50 56 -52 60 -35 78 9 10 23 19 30 19 18 0 53 52 51 75 -1 14 5 21 21 23 19 3 23 8 18 27 -6 23 3 33 34 34 8 1 29 -16 48 -36z m207 -193 c3 -5 17 -10 30 -10 45 0 38 -47 -9 -63 -8 -3 -7 -8 1 -19 11 -12 9 -18 -7 -33 -11 -10 -20 -24 -20 -31 0 -7 -9 -18 -20 -24 -11 -6 -20 -9 -20 -7 0 14 23 67 30 67 4 0 5 11 3 24 -4 16 2 28 18 39 21 16 22 17 3 22 -10 4 -27 11 -36 16 -30 15 -39 11 -32 -16 4 -18 1 -32 -12 -47 -14 -16 -15 -20 -4 -16 8 3 24 1 35 -4 18 -8 18 -8 -3 -4 -15 3 -25 -1 -29 -11 -5 -13 -8 -12 -15 7 -6 16 -4 28 7 40 18 20 20 40 3 40 -6 0 -3 9 7 20 19 21 60 27 70 10z m180 -58 c46 -12 61 -46 24 -57 -16 -5 -19 -12 -15 -30 4 -17 0 -28 -16 -39 -17 -12 -22 -26 -23 -66 -1 -27 -6 -55 -12 -61 -22 -22 -103 12 -103 43 0 6 8 1 18 -10 21 -25 58 -37 67 -21 4 6 2 14 -4 18 -8 5 -7 20 5 55 14 41 14 50 3 57 -23 14 -30 11 -42 -21 -15 -38 -22 -38 -34 3 -7 23 -15 31 -28 30 -17 -1 -16 1 5 17 14 11 32 17 41 14 20 -6 51 27 32 33 -7 3 -13 10 -13 17 0 17 41 36 60 29 8 -3 24 -8 35 -11z m373 -5 c10 -8 9 -15 -4 -35 -12 -18 -13 -27 -6 -30 15 -5 16 -39 2 -47 -17 -10 -12 -75 5 -75 15 0 20 -26 9 -54 -4 -11 -18 -16 -43 -15 -30 2 -31 3 -8 6 25 4 40 33 17 33 -5 0 -10 17 -11 38 -1 47 -10 67 -31 68 -15 2 -18 -6 -18 -39 l0 -41 -34 33 -34 33 -23 -31 c-24 -33 -39 -27 -39 16 0 20 -4 22 -41 17 -38 -6 -41 -4 -34 12 17 43 17 54 1 54 -20 0 -20 9 0 38 12 18 25 22 64 22 56 0 68 -11 49 -47 -11 -20 -11 -26 1 -33 12 -7 12 -13 0 -34 -18 -35 -6 -44 15 -12 10 14 22 26 28 26 6 0 19 8 30 18 19 16 20 16 8 -5 -14 -28 -14 -38 2 -26 6 5 25 8 41 7 22 -2 26 0 18 8 -17 17 -15 48 3 54 28 11 5 22 -38 19 -23 -2 -44 -4 -46 -4 -2 -1 2 -7 8 -15 10 -12 8 -13 -8 -9 -21 5 -20 14 6 44 16 18 90 23 111 6z m-648 -117 c0 -5 -9 -14 -20 -20 -22 -12 -27 -1 -8 18 14 14 28 16 28 2z m120 -41 c7 -11 9 -23 7 -26 -3 -2 -8 5 -12 16 -6 20 -7 20 -47 -5 -22 -14 -42 -23 -45 -20 -5 5 66 54 79 55 4 1 12 -8 18 -20z m261 -67 c-6 -2 -11 -10 -11 -18 0 -9 11 -14 34 -14 28 0 38 7 61 40 15 22 28 40 29 40 1 0 20 -19 41 -42 l40 -43 -37 34 c-37 34 -38 34 -53 15 -9 -10 -20 -27 -26 -36 -7 -13 -22 -18 -54 -18 -43 0 -45 1 -45 29 0 17 5 33 10 36 6 3 11 18 12 33 1 17 3 12 5 -13 3 -23 0 -41 -6 -43z"/>
 <path d="M1220 1020 c0 -5 20 -10 45 -10 25 0 45 5 45 10 0 6 -20 10 -45 10 -25 0 -45 -4 -45 -10z"/>
 <path d="M520 1410 l0 -80 100 0 100 0 0 80 0 80 -100 0 -100 0 0 -80z m174 -69 c-6 -6 -134 120 -134 133 0 6 31 -21 70 -59 38 -38 67 -71 64 -74z m-94 54 c30 -30 50 -55 44 -55 -5 0 -34 25 -64 55 -30 30 -50 55 -44 55 5 0 34 -25 64 -55z"/>
 <path d="M740 1480 c0 -5 9 -10 20 -10 11 0 20 5 20 10 0 6 -9 10 -20 10 -11 0 -20 -4 -20 -10z"/>
 <path d="M740 1340 c0 -5 9 -10 20 -10 11 0 20 5 20 10 0 6 -9 10 -20 10 -11 0 -20 -4 -20 -10z"/>
 <path d="M934 1411 c-31 -19 -60 -77 -51 -104 2 -6 7 4 11 24 8 47 46 81 99 90 41 6 41 7 7 8 -19 0 -49 -8 -66 -18z"/>
 <path d="M1061 1398 c64 -60 45 -153 -37 -178 -25 -7 -26 -8 -7 -9 37 -2 83 48 89 94 5 31 1 48 -18 74 -12 19 -30 37 -38 39 -8 3 -3 -6 11 -20z"/>
 <path d="M941 1384 c-81 -68 7 -193 101 -143 55 29 53 125 -3 154 -40 21 -63 19 -98 -11z m64 -54 c27 -27 47 -50 44 -50 -3 0 -27 23 -54 50 -27 28 -47 50 -44 50 3 0 27 -22 54 -50z m10 -49 c-7 -6 -75 60 -75 73 0 6 18 -7 40 -29 22 -21 37 -41 35 -44z"/>
 <path d="M890 1282 c0 -23 57 -72 82 -71 18 1 16 3 -10 10 -20 6 -40 22 -52 42 -11 18 -20 26 -20 19z"/>
 <path d="M860 1140 l0 -30 135 0 135 0 0 30 0 30 -135 0 -135 0 0 -30z m208 3 c-2 -10 -10 -18 -18 -18 -8 0 -16 8 -18 18 -2 12 3 17 18 17 15 0 20 -5 18 -17z m50 0 c-2 -10 -10 -18 -18 -18 -8 0 -16 8 -18 18 -2 12 3 17 18 17 15 0 20 -5 18 -17z m-198 -1 c0 -4 -11 -9 -25 -10 -14 -1 -25 3 -25 8 0 6 11 10 25 10 14 0 25 -4 25 -8z"/>
 <path d="M350 925 c-25 -13 -52 -22 -62 -19 -26 8 -30 -11 -11 -50 18 -40 32 -46 40 -18 2 10 24 28 47 40 38 18 43 24 39 46 -3 14 -6 26 -7 26 0 -1 -21 -12 -46 -25z"/>
 <path d="M1220 900 c0 -5 20 -10 45 -10 25 0 45 5 45 10 0 6 -20 10 -45 10 -25 0 -45 -4 -45 -10z"/>
 <path d="M519 864 c-1 -5 -2 -18 -3 -29 0 -10 -10 -24 -22 -30 -11 -5 -19 -15 -17 -20 4 -14 -59 -90 -74 -90 -7 0 -14 -4 -14 -10 -1 -12 82 -114 94 -114 4 -1 11 9 16 22 5 12 25 31 45 41 20 11 36 22 36 25 0 4 -20 28 -45 54 -43 46 -63 85 -30 57 8 -7 15 -18 15 -25 0 -7 18 -27 40 -45 22 -17 39 -34 39 -38 -4 -23 3 -24 14 -2 10 18 20 24 40 23 32 -2 35 12 7 29 -11 7 -20 18 -20 24 0 7 -7 14 -15 18 -10 3 -15 -1 -15 -14 0 -28 -38 -36 -62 -12 -24 24 -16 62 13 62 10 0 19 4 19 9 0 12 -60 75 -61 65z m5 -163 c17 -19 16 -20 -23 -40 -48 -25 -61 -13 -31 29 25 35 31 36 54 11z"/>
 <path d="M898 567 c15 -17 3 -51 -20 -60 -7 -3 -4 -6 8 -6 11 -1 29 -8 40 -16 25 -19 40 -19 25 -1 -16 19 2 56 26 56 32 0 -9 28 -52 36 -36 6 -39 5 -27 -9z"/>
 <path d="M1055 550 c-3 -4 2 -10 10 -14 18 -7 20 -53 3 -59 -7 -2 8 -4 34 -3 31 0 44 4 38 10 -13 13 -13 56 0 56 6 0 10 4 10 9 0 11 -88 12 -95 1z"/>
 </g>
<g id="layer107" fill="#957197" stroke="none">
 <path d="M824 1880 c-365 -95 -616 -395 -641 -766 -27 -403 239 -771 632 -875 104 -28 297 -30 400 -6 328 80 575 332 640 656 27 133 17 308 -24 431 -77 227 -217 390 -426 495 -125 62 -229 85 -385 84 -88 0 -146 -6 -196 -19z m746 -630 l0 -280 -195 0 -195 0 0 264 c0 145 3 271 6 280 5 14 32 16 195 16 l189 0 0 -280z m-760 155 l0 -115 -162 2 -163 3 -3 99 c-1 55 0 106 2 113 4 10 42 13 166 13 l160 0 0 -115z m345 -100 l0 -210 -154 -3 c-117 -2 -156 1 -163 10 -9 16 -11 402 -1 412 4 3 77 5 162 4 l156 -3 0 -210z m-714 -230 c62 -32 90 -123 49 -160 -11 -10 -20 -24 -20 -32 0 -13 -12 -17 -39 -13 -22 3 -71 -21 -71 -36 0 -17 -37 -37 -56 -30 -8 3 -24 26 -36 52 -22 45 -23 46 -3 60 10 8 27 12 36 9 18 -6 89 24 89 37 0 5 10 13 23 18 l22 9 -22 0 c-13 1 -24 10 -29 23 -3 12 -13 29 -21 37 -13 13 -13 16 3 28 23 17 38 16 75 -2z m1127 -282 l-3 -148 -179 -3 c-123 -2 -183 1 -192 9 -11 9 -14 44 -14 150 l0 139 195 0 196 0 -3 -147z m-980 50 c18 -21 31 -45 29 -54 -3 -12 3 -19 22 -22 14 -3 39 -22 54 -42 24 -30 26 -39 16 -51 -8 -9 -21 -13 -35 -10 -16 4 -23 1 -27 -14 -4 -15 -14 -20 -39 -20 -35 -1 -56 -13 -74 -45 -26 -47 -41 -44 -104 25 -32 36 -59 71 -60 78 0 7 13 19 29 25 37 16 73 60 65 81 -4 11 2 19 21 26 19 7 25 15 21 26 -18 47 39 45 82 -3z m221 -193 c55 -16 65 -42 25 -63 -17 -9 -23 -17 -15 -21 16 -11 14 -23 -11 -46 -26 -24 -12 -27 20 -4 13 9 26 13 29 10 3 -3 14 -1 25 5 18 10 19 12 3 29 -15 17 -15 19 7 34 27 19 41 20 71 4 12 -6 29 -14 37 -18 24 -11 23 -38 0 -45 -16 -5 -20 -12 -16 -28 3 -13 -2 -29 -14 -42 -22 -23 -37 -75 -22 -75 14 0 3 -36 -14 -51 -11 -9 -24 -9 -53 0 -32 9 -42 19 -55 51 -9 22 -19 40 -22 40 -4 0 -22 -9 -40 -21 -29 -18 -38 -19 -74 -8 -47 14 -49 26 -13 70 20 24 27 43 27 70 -1 24 4 40 12 43 17 7 18 33 2 40 -9 3 -7 9 6 20 23 19 38 20 85 6z m375 -75 c3 -8 -2 -19 -10 -25 -17 -15 -18 -37 -2 -42 10 -4 10 -10 0 -32 -7 -15 -10 -32 -6 -37 6 -11 -13 -39 -27 -39 -5 0 -9 16 -9 35 0 21 5 35 12 35 9 0 9 3 0 12 -15 15 -16 50 -1 65 8 8 -1 11 -35 11 -25 -1 -46 -5 -46 -10 0 -4 4 -8 9 -8 13 0 20 -35 10 -52 -6 -12 -2 -14 23 -10 22 3 29 1 23 -7 -4 -7 -13 -10 -21 -7 -11 4 -14 -7 -14 -49 0 -30 -4 -55 -10 -55 -5 0 -10 -7 -10 -15 0 -10 10 -15 33 -15 26 0 37 8 61 41 l28 41 37 -36 c27 -26 46 -36 69 -36 31 0 47 23 22 32 -15 5 -26 108 -11 108 8 0 8 6 -1 20 -10 16 -10 24 0 40 17 28 17 28 -28 26 -34 -2 -72 -16 -42 -16 17 0 25 -39 11 -56 -10 -13 -8 -14 20 -9 21 4 30 2 26 -5 -3 -5 -13 -10 -21 -10 -9 0 -14 -11 -14 -35 0 -19 -3 -35 -6 -35 -3 0 -17 14 -31 30 -21 26 -28 29 -41 18 -13 -12 -14 -10 -3 10 7 13 23 27 37 32 27 10 34 50 9 50 -21 0 -19 13 8 37 27 25 99 29 118 7 9 -11 8 -19 -7 -36 -14 -15 -16 -22 -6 -25 14 -6 16 -39 2 -48 -16 -10 -12 -65 5 -71 16 -6 19 -31 9 -58 -4 -11 -19 -16 -52 -16 -39 0 -49 5 -72 32 l-26 31 -28 -36 c-25 -33 -33 -37 -72 -37 -42 0 -44 1 -44 29 0 17 5 33 10 36 16 10 12 52 -7 70 -13 14 -14 21 -5 36 16 25 15 39 -3 39 -19 0 -19 10 0 37 22 32 117 38 129 8z"/>
 <path d="M1220 1020 c0 -5 20 -10 45 -10 25 0 45 5 45 10 0 6 -20 10 -45 10 -25 0 -45 -4 -45 -10z"/>
 <path d="M520 1410 l0 -80 100 0 100 0 0 80 0 80 -100 0 -100 0 0 -80z m174 -69 c-6 -6 -134 120 -134 133 0 6 31 -21 70 -59 38 -38 67 -71 64 -74z m-94 54 c30 -30 50 -55 44 -55 -5 0 -34 25 -64 55 -30 30 -50 55 -44 55 5 0 34 -25 64 -55z"/>
 <path d="M740 1480 c0 -5 9 -10 20 -10 11 0 20 5 20 10 0 6 -9 10 -20 10 -11 0 -20 -4 -20 -10z"/>
 <path d="M740 1340 c0 -5 9 -10 20 -10 11 0 20 5 20 10 0 6 -9 10 -20 10 -11 0 -20 -4 -20 -10z"/>
 <path d="M934 1411 c-31 -19 -60 -77 -51 -104 2 -6 7 4 11 24 8 47 46 81 99 90 41 6 41 7 7 8 -19 0 -49 -8 -66 -18z"/>
 <path d="M1061 1398 c64 -60 45 -153 -37 -178 -25 -7 -26 -8 -7 -9 37 -2 83 48 89 94 5 31 1 48 -18 74 -12 19 -30 37 -38 39 -8 3 -3 -6 11 -20z"/>
 <path d="M941 1384 c-81 -68 7 -193 101 -143 55 29 53 125 -3 154 -40 21 -63 19 -98 -11z m64 -54 c27 -27 47 -50 44 -50 -3 0 -27 23 -54 50 -27 28 -47 50 -44 50 3 0 27 -22 54 -50z m10 -49 c-7 -6 -75 60 -75 73 0 6 18 -7 40 -29 22 -21 37 -41 35 -44z"/>
 <path d="M890 1282 c0 -23 57 -72 82 -71 18 1 16 3 -10 10 -20 6 -40 22 -52 42 -11 18 -20 26 -20 19z"/>
 <path d="M860 1140 l0 -30 135 0 135 0 0 30 0 30 -135 0 -135 0 0 -30z m208 3 c-2 -10 -10 -18 -18 -18 -8 0 -16 8 -18 18 -2 12 3 17 18 17 15 0 20 -5 18 -17z m50 0 c-2 -10 -10 -18 -18 -18 -8 0 -16 8 -18 18 -2 12 3 17 18 17 15 0 20 -5 18 -17z m-198 -1 c0 -4 -11 -9 -25 -10 -14 -1 -25 3 -25 8 0 6 11 10 25 10 14 0 25 -4 25 -8z"/>
 <path d="M379 1069 c-12 -8 -11 -12 2 -22 9 -6 14 -19 11 -27 -5 -13 -3 -13 12 0 16 13 20 12 32 -5 19 -25 18 -31 -7 -48 -17 -12 -19 -21 -13 -53 6 -31 8 -35 14 -18 4 11 15 26 24 33 49 41 -23 174 -75 140z"/>
 <path d="M345 919 c-17 -11 -39 -17 -52 -14 -31 7 -36 -8 -16 -49 18 -39 32 -46 40 -18 2 10 24 28 47 41 34 17 43 27 39 42 -7 24 -19 23 -58 -2z"/>
 <path d="M1220 900 c0 -5 20 -10 45 -10 25 0 45 5 45 10 0 6 -20 10 -45 10 -25 0 -45 -4 -45 -10z"/>
 <path d="M518 838 c-2 -12 -14 -28 -28 -35 -15 -8 -19 -13 -9 -13 8 0 24 -17 35 -37 11 -21 30 -42 42 -48 12 -5 28 -23 37 -40 13 -26 15 -27 15 -8 0 23 38 41 59 28 6 -3 11 -2 11 4 0 6 -9 15 -20 21 -11 6 -20 17 -20 25 0 22 -27 18 -33 -5 -10 -40 -77 -13 -77 30 0 20 32 44 44 33 3 -3 6 -1 6 6 0 6 -7 14 -15 17 -8 3 -17 14 -20 25 -8 26 -23 24 -27 -3z"/>
 <path d="M445 731 c-15 -23 -32 -38 -40 -35 -7 3 -16 1 -19 -4 -7 -12 93 -124 106 -116 5 3 7 12 5 18 -3 7 14 23 39 37 24 13 44 27 44 31 0 9 -30 38 -40 38 -4 0 -17 16 -29 35 -11 19 -24 35 -29 35 -5 0 -22 -18 -37 -39z m89 -52 c-3 -5 -10 -9 -15 -9 -6 0 -7 5 -3 12 4 7 3 8 -5 4 -6 -4 -9 -11 -6 -16 3 -5 -3 -14 -14 -19 -46 -25 -53 -5 -19 45 l23 33 22 -21 c12 -11 20 -25 17 -29z"/>
 <path d="M572 753 c5 -24 27 -28 25 -4 -1 12 -7 21 -15 21 -7 0 -12 -8 -10 -17z"/>
 <path d="M738 623 c11 -22 5 -43 -17 -62 -15 -13 -15 -13 0 -8 9 3 28 0 41 -7 23 -12 24 -12 20 9 -2 15 3 28 19 38 21 16 22 17 3 22 -10 4 -27 11 -36 16 -28 15 -40 11 -30 -8z"/>
 <path d="M900 565 c15 -18 4 -52 -18 -58 -12 -3 -9 -5 8 -7 14 -1 29 -2 33 -1 4 1 10 -6 13 -14 4 -8 11 -15 16 -15 6 0 6 6 -2 15 -14 17 -4 55 16 55 8 0 14 5 14 10 0 6 -11 10 -25 10 -14 0 -25 5 -25 10 0 6 -10 10 -21 10 -18 0 -19 -3 -9 -15z"/>
 <path d="M720 525 c-5 -14 -13 -37 -16 -50 -3 -14 -12 -25 -19 -25 -7 0 -15 -7 -18 -15 -11 -26 57 -31 96 -6 19 12 39 21 44 21 5 0 16 -19 24 -42 18 -48 64 -82 80 -57 4 8 3 16 -3 20 -7 5 -6 22 6 55 9 26 16 48 16 50 0 1 -9 4 -21 7 -16 4 -23 -1 -31 -24 -13 -38 -24 -37 -38 6 -6 19 -14 35 -17 35 -3 0 -18 -9 -35 -21 -35 -26 -44 -20 -30 20 9 27 8 32 -9 41 -16 9 -21 7 -29 -15z"/>
 </g>
<g id="layer108" fill="#7d7fb1" stroke="none">
 <path d="M823 1880 c-364 -95 -615 -395 -640 -766 -27 -403 239 -771 632 -875 113 -30 307 -30 420 0 321 86 556 333 620 650 13 63 16 116 13 210 -4 111 -9 138 -40 228 -39 115 -79 185 -156 279 -106 129 -276 234 -442 274 -114 27 -304 27 -407 0z m747 -630 l0 -280 -195 0 -195 0 0 264 c0 145 3 271 6 280 5 14 32 16 195 16 l189 0 0 -280z m-760 155 l0 -115 -162 2 -163 3 -3 99 c-1 55 0 106 2 113 4 10 42 13 166 13 l160 0 0 -115z m345 -100 l0 -210 -154 -3 c-117 -2 -156 1 -163 10 -9 16 -11 402 -1 412 4 3 77 5 162 4 l156 -3 0 -210z m-683 -252 c49 -46 56 -130 14 -146 -9 -4 -16 -13 -16 -21 0 -17 -24 -28 -45 -20 -17 7 -68 -23 -61 -35 6 -9 -36 -31 -57 -31 -7 0 -25 24 -39 54 l-27 53 25 12 c14 6 30 8 36 5 14 -9 82 24 96 47 7 10 8 19 3 19 -7 0 -51 72 -51 85 0 2 8 6 18 8 32 10 76 -3 104 -30z m1096 -260 l-3 -148 -179 -3 c-123 -2 -183 1 -192 9 -11 9 -14 44 -14 150 l0 139 195 0 196 0 -3 -147z m-980 53 c17 -18 32 -43 32 -55 0 -13 6 -21 17 -21 22 0 85 -70 80 -90 -2 -10 -13 -15 -34 -14 -23 1 -33 -3 -36 -17 -3 -12 -14 -19 -31 -19 -35 0 -77 -21 -74 -37 2 -8 -10 -22 -25 -31 l-28 -17 -64 70 c-58 65 -62 71 -48 88 9 9 24 17 33 17 20 0 64 56 50 65 -14 9 -2 25 27 36 17 6 23 14 19 25 -17 45 38 45 82 0z m198 -185 c5 -5 20 -11 33 -13 13 -1 29 -11 35 -21 9 -14 7 -21 -11 -35 -16 -12 -21 -24 -17 -39 4 -15 0 -25 -16 -33 -12 -6 -19 -14 -17 -17 3 -2 17 3 31 12 14 9 29 14 34 12 4 -3 14 -2 22 3 12 8 13 13 3 29 -11 17 -9 22 9 36 25 17 49 19 64 6 5 -5 20 -11 34 -13 34 -4 41 -47 10 -55 -17 -5 -20 -11 -15 -33 4 -20 2 -29 -10 -33 -21 -9 -38 -56 -26 -71 14 -17 -10 -60 -36 -64 -36 -5 -81 24 -88 58 -9 41 -18 44 -59 20 -31 -19 -39 -20 -76 -9 -37 11 -41 15 -35 38 4 14 13 30 21 34 23 13 37 57 23 73 -8 10 -5 17 10 31 23 19 27 39 9 45 -16 6 -1 27 26 38 28 12 30 12 42 1z m389 -77 c15 -15 14 -18 -1 -42 -12 -18 -13 -27 -6 -30 15 -5 16 -39 2 -47 -5 -3 -10 -11 -10 -16 0 -6 12 3 26 20 14 17 29 29 34 26 4 -3 11 2 14 11 10 25 7 34 -9 34 -20 0 -19 16 4 39 14 14 34 19 71 19 59 1 74 -16 44 -50 -14 -15 -16 -22 -6 -25 15 -6 16 -39 1 -48 -12 -8 -2 -67 13 -76 5 -3 8 -19 6 -35 -3 -25 -9 -30 -47 -38 -43 -9 -45 -9 -77 28 l-32 37 -27 -34 c-21 -29 -33 -36 -70 -39 -45 -3 -45 -3 -45 29 0 17 4 35 10 38 12 7 1 67 -14 77 -8 5 -7 13 2 28 16 26 15 40 -3 40 -8 0 -15 6 -15 13 0 22 32 45 70 50 19 2 38 5 42 5 4 1 14 -5 23 -14z"/>
 <path d="M1220 1020 c0 -5 20 -10 45 -10 25 0 45 5 45 10 0 6 -20 10 -45 10 -25 0 -45 -4 -45 -10z"/>
 <path d="M520 1410 l0 -80 100 0 100 0 0 80 0 80 -100 0 -100 0 0 -80z m174 -69 c-6 -6 -134 120 -134 133 0 6 31 -21 70 -59 38 -38 67 -71 64 -74z m-94 54 c30 -30 50 -55 44 -55 -5 0 -34 25 -64 55 -30 30 -50 55 -44 55 5 0 34 -25 64 -55z"/>
 <path d="M740 1480 c0 -5 9 -10 20 -10 11 0 20 5 20 10 0 6 -9 10 -20 10 -11 0 -20 -4 -20 -10z"/>
 <path d="M740 1340 c0 -5 9 -10 20 -10 11 0 20 5 20 10 0 6 -9 10 -20 10 -11 0 -20 -4 -20 -10z"/>
 <path d="M934 1411 c-31 -19 -60 -77 -51 -104 2 -6 7 4 11 24 8 47 46 81 99 90 41 6 41 7 7 8 -19 0 -49 -8 -66 -18z"/>
 <path d="M1061 1398 c64 -60 45 -153 -37 -178 -25 -7 -26 -8 -7 -9 37 -2 83 48 89 94 5 31 1 48 -18 74 -12 19 -30 37 -38 39 -8 3 -3 -6 11 -20z"/>
 <path d="M941 1384 c-81 -68 7 -193 101 -143 55 29 53 125 -3 154 -40 21 -63 19 -98 -11z m64 -54 c27 -27 47 -50 44 -50 -3 0 -27 23 -54 50 -27 28 -47 50 -44 50 3 0 27 -22 54 -50z m10 -49 c-7 -6 -75 60 -75 73 0 6 18 -7 40 -29 22 -21 37 -41 35 -44z"/>
 <path d="M890 1282 c0 -23 57 -72 82 -71 18 1 16 3 -10 10 -20 6 -40 22 -52 42 -11 18 -20 26 -20 19z"/>
 <path d="M860 1140 l0 -30 135 0 135 0 0 30 0 30 -135 0 -135 0 0 -30z m208 3 c-2 -10 -10 -18 -18 -18 -8 0 -16 8 -18 18 -2 12 3 17 18 17 15 0 20 -5 18 -17z m50 0 c-2 -10 -10 -18 -18 -18 -8 0 -16 8 -18 18 -2 12 3 17 18 17 15 0 20 -5 18 -17z m-198 -1 c0 -4 -11 -9 -25 -10 -14 -1 -25 3 -25 8 0 6 11 10 25 10 14 0 25 -4 25 -8z"/>
 <path d="M370 1061 c0 -5 7 -11 15 -15 9 -3 12 -12 8 -23 -6 -16 -5 -16 10 -4 14 11 20 11 32 1 21 -17 19 -36 -6 -54 -16 -11 -20 -21 -15 -41 l6 -25 27 24 c22 21 25 30 20 62 -7 45 -42 84 -74 84 -13 0 -23 -4 -23 -9z"/>
 <path d="M340 916 c-28 -15 -47 -20 -51 -14 -4 6 -12 8 -18 4 -7 -5 -5 -18 6 -41 17 -36 43 -47 43 -20 0 8 20 25 45 37 31 15 42 25 35 33 -6 7 -7 15 -3 18 13 14 -13 5 -57 -17z"/>
 <path d="M1220 900 c0 -5 20 -10 45 -10 25 0 45 5 45 10 0 6 -20 10 -45 10 -25 0 -45 -4 -45 -10z"/>
 <path d="M518 838 c-2 -12 -14 -28 -28 -35 -14 -7 -19 -13 -12 -13 18 0 42 -25 42 -43 0 -14 31 -47 44 -47 12 0 34 -25 39 -46 4 -17 5 -16 6 3 1 23 40 41 60 28 21 -12 11 7 -19 37 -17 17 -34 28 -37 24 -4 -3 -3 -6 2 -6 4 0 2 -7 -5 -15 -15 -18 -51 -20 -68 -3 -26 26 -1 91 28 73 5 -3 10 -2 10 4 0 6 -9 15 -20 21 -11 6 -20 17 -20 25 0 24 -18 17 -22 -7z"/>
 <path d="M447 730 c-16 -22 -33 -38 -38 -35 -5 4 -14 3 -19 0 -6 -4 11 -32 41 -66 28 -32 55 -56 61 -53 5 3 7 12 5 19 -3 7 12 22 36 35 23 13 44 24 46 26 4 3 -11 18 -49 49 l-25 20 19 -23 c11 -12 17 -24 15 -26 -17 -15 -74 -36 -86 -32 -12 5 -11 11 8 38 12 18 29 38 37 45 13 11 13 14 -1 27 -9 9 -17 16 -19 16 -2 0 -16 -18 -31 -40z"/>
 <path d="M572 753 c5 -24 27 -28 25 -4 -1 12 -7 21 -15 21 -7 0 -12 -8 -10 -17z"/>
 <path d="M739 627 c10 -13 11 -23 4 -40 -9 -20 -7 -25 19 -40 16 -9 26 -12 23 -6 -11 17 4 59 21 59 22 0 8 17 -18 23 -13 2 -32 8 -43 13 -18 7 -19 6 -6 -9z"/>
 <path d="M899 571 c18 -12 7 -58 -17 -64 -13 -4 -12 -5 6 -7 32 -4 36 -5 49 -13 7 -5 10 -1 6 12 -3 11 4 27 18 40 l23 21 -27 0 c-14 0 -29 5 -32 10 -3 6 -14 10 -23 10 -14 0 -14 -2 -3 -9z"/>
 <path d="M710 496 c-7 -26 -19 -46 -26 -46 -25 0 -14 -29 13 -36 19 -5 38 -1 64 14 21 12 42 22 47 22 5 0 17 -20 26 -44 12 -32 25 -47 46 -54 22 -8 30 -7 34 3 3 8 0 15 -6 17 -8 3 -6 19 5 53 19 54 19 52 -7 57 -14 2 -22 -6 -31 -32 l-13 -35 -17 40 c-9 22 -19 42 -20 44 -2 2 -18 -7 -35 -19 -37 -27 -46 -21 -32 19 6 17 7 31 2 31 -4 0 -15 2 -23 6 -10 3 -18 -8 -27 -40z"/>
 <path d="M1262 563 c-29 -4 -31 -6 -16 -20 9 -9 14 -26 12 -37 -4 -18 1 -21 31 -22 20 0 30 1 24 3 -15 5 -17 49 -3 58 14 9 12 25 -2 23 -7 0 -28 -3 -46 -5z"/>
 <path d="M1064 548 c-3 -5 -1 -8 5 -8 15 0 24 -39 12 -54 -8 -10 -4 -12 19 -8 25 4 30 9 30 31 0 15 5 32 11 38 7 7 -1 10 -31 9 -23 0 -44 -4 -46 -8z"/>
 <path d="M1090 413 c0 -29 -4 -53 -10 -53 -5 0 -10 -7 -10 -15 0 -10 10 -15 29 -15 22 0 38 10 64 42 l35 41 32 -36 c25 -29 39 -37 66 -37 35 0 48 22 19 34 -10 4 -15 20 -15 51 0 38 -3 45 -20 45 -16 0 -20 -7 -20 -35 0 -19 -3 -35 -7 -35 -3 0 -18 14 -33 31 l-26 31 -24 -35 c-28 -41 -40 -39 -40 6 0 26 -4 33 -20 33 -17 0 -20 -7 -20 -53z"/>
 </g>
<g id="layer109" fill="#4d96d7" stroke="none">
 <path d="M823 1880 c-364 -95 -615 -395 -640 -766 -27 -403 239 -771 632 -875 113 -30 307 -30 420 0 321 86 556 333 620 650 13 63 16 116 13 210 -4 111 -9 138 -40 228 -39 115 -79 185 -156 279 -106 129 -276 234 -442 274 -114 27 -304 27 -407 0z m747 -630 l0 -280 -195 0 -195 0 0 264 c0 145 3 271 6 280 5 14 32 16 195 16 l189 0 0 -280z m-760 155 l0 -115 -162 2 -163 3 -3 99 c-1 55 0 106 2 113 4 10 42 13 166 13 l160 0 0 -115z m345 -100 l0 -210 -154 -3 c-117 -2 -156 1 -163 10 -9 16 -11 402 -1 412 4 3 77 5 162 4 l156 -3 0 -210z m-704 -232 c30 -18 69 -84 69 -117 0 -9 -10 -27 -23 -39 -13 -12 -26 -30 -30 -40 -4 -12 -16 -17 -34 -15 -32 2 -76 -19 -68 -32 7 -11 -27 -30 -54 -30 -15 0 -28 14 -46 50 -14 27 -25 51 -25 53 0 8 61 30 67 24 3 -4 20 1 37 10 34 17 73 53 57 53 -5 0 -19 19 -31 42 -17 33 -19 43 -8 49 21 14 58 10 89 -8z m1117 -280 l-3 -148 -179 -3 c-123 -2 -183 1 -192 9 -11 9 -14 44 -14 150 l0 139 195 0 196 0 -3 -147z m-975 53 c15 -19 27 -44 27 -55 0 -13 7 -21 18 -21 24 0 84 -66 80 -87 -2 -13 -13 -18 -33 -18 -19 0 -33 -6 -37 -17 -4 -11 -18 -18 -33 -18 -32 0 -65 -16 -65 -32 0 -18 -31 -48 -51 -48 -9 0 -44 30 -78 67 -55 63 -59 69 -44 85 9 10 21 18 28 18 19 0 57 46 53 66 -2 12 7 23 25 32 19 9 26 19 23 29 -18 46 49 46 87 -1z m212 -190 c54 -19 67 -42 37 -66 -14 -12 -20 -24 -15 -35 4 -12 -2 -24 -18 -37 l-24 -19 33 16 c18 9 36 13 41 11 5 -3 15 1 22 10 10 13 10 17 -1 24 -12 7 -11 12 4 29 22 25 37 26 91 7 47 -16 59 -48 25 -66 -17 -9 -19 -14 -10 -25 9 -11 6 -19 -10 -35 -27 -27 -43 -67 -29 -75 13 -8 2 -46 -18 -62 -28 -22 -85 7 -108 55 l-20 41 -37 -21 c-33 -19 -42 -20 -78 -9 -46 14 -53 38 -20 71 28 28 41 65 28 78 -7 7 -3 17 12 32 18 18 19 24 8 37 -10 13 -9 18 11 34 28 23 25 22 76 5z m536 -56 c23 -13 25 -33 4 -50 -14 -12 -14 -15 2 -32 13 -14 14 -21 5 -30 -15 -15 -16 -74 -2 -83 14 -9 13 -58 -2 -73 -24 -24 -80 -14 -115 20 l-33 32 -28 -32 c-19 -23 -39 -34 -68 -38 -39 -6 -42 -4 -48 21 -4 16 -3 32 3 38 15 15 14 74 -1 80 -10 3 -10 11 -1 36 10 27 9 33 -3 38 -21 8 -17 29 9 50 52 41 159 10 115 -33 -13 -13 -14 -20 -5 -35 9 -15 9 -24 -1 -41 -9 -17 -7 -16 10 5 13 15 29 27 35 27 21 0 25 21 7 34 -17 13 -17 15 -1 39 12 18 28 27 54 30 21 2 39 4 41 5 2 1 12 -3 23 -8z"/>
 <path d="M1220 1020 c0 -5 20 -10 45 -10 25 0 45 5 45 10 0 6 -20 10 -45 10 -25 0 -45 -4 -45 -10z"/>
 <path d="M520 1410 l0 -80 100 0 100 0 0 80 0 80 -100 0 -100 0 0 -80z m174 -69 c-6 -6 -134 120 -134 133 0 6 31 -21 70 -59 38 -38 67 -71 64 -74z m-94 54 c30 -30 50 -55 44 -55 -5 0 -34 25 -64 55 -30 30 -50 55 -44 55 5 0 34 -25 64 -55z"/>
 <path d="M740 1480 c0 -5 9 -10 20 -10 11 0 20 5 20 10 0 6 -9 10 -20 10 -11 0 -20 -4 -20 -10z"/>
 <path d="M740 1340 c0 -5 9 -10 20 -10 11 0 20 5 20 10 0 6 -9 10 -20 10 -11 0 -20 -4 -20 -10z"/>
 <path d="M934 1411 c-31 -19 -60 -77 -51 -104 2 -6 7 4 11 24 8 47 46 81 99 90 41 6 41 7 7 8 -19 0 -49 -8 -66 -18z"/>
 <path d="M1061 1398 c64 -60 45 -153 -37 -178 -25 -7 -26 -8 -7 -9 37 -2 83 48 89 94 5 31 1 48 -18 74 -12 19 -30 37 -38 39 -8 3 -3 -6 11 -20z"/>
 <path d="M941 1384 c-81 -68 7 -193 101 -143 55 29 53 125 -3 154 -40 21 -63 19 -98 -11z m64 -54 c27 -27 47 -50 44 -50 -3 0 -27 23 -54 50 -27 28 -47 50 -44 50 3 0 27 -22 54 -50z m10 -49 c-7 -6 -75 60 -75 73 0 6 18 -7 40 -29 22 -21 37 -41 35 -44z"/>
 <path d="M890 1282 c0 -23 57 -72 82 -71 18 1 16 3 -10 10 -20 6 -40 22 -52 42 -11 18 -20 26 -20 19z"/>
 <path d="M860 1140 l0 -30 135 0 135 0 0 30 0 30 -135 0 -135 0 0 -30z m208 3 c-2 -10 -10 -18 -18 -18 -8 0 -16 8 -18 18 -2 12 3 17 18 17 15 0 20 -5 18 -17z m50 0 c-2 -10 -10 -18 -18 -18 -8 0 -16 8 -18 18 -2 12 3 17 18 17 15 0 20 -5 18 -17z m-198 -1 c0 -4 -11 -9 -25 -10 -14 -1 -25 3 -25 8 0 6 11 10 25 10 14 0 25 -4 25 -8z"/>
 <path d="M384 1051 c11 -12 27 -21 37 -21 11 0 21 -10 25 -24 7 -29 -1 -46 -22 -46 -8 0 -14 -9 -14 -20 0 -23 29 -27 48 -8 34 34 -11 130 -63 136 -30 4 -30 4 -11 -17z"/>
 <path d="M338 915 c-29 -15 -49 -21 -53 -15 -4 6 -10 8 -15 5 -13 -8 21 -75 37 -75 7 0 10 6 7 13 -3 8 13 21 40 34 36 18 43 26 39 42 -3 12 -6 21 -7 21 0 -1 -22 -12 -48 -25z"/>
 <path d="M1220 900 c0 -5 20 -10 45 -10 25 0 45 5 45 10 0 6 -20 10 -45 10 -25 0 -45 -4 -45 -10z"/>
 <path d="M520 836 c0 -14 -7 -29 -16 -34 -14 -8 -14 -11 -1 -23 7 -8 16 -21 20 -29 4 -10 6 -8 6 6 1 25 25 49 41 39 20 -12 10 7 -20 37 l-30 30 0 -26z"/>
 <path d="M450 730 c-17 -22 -36 -38 -41 -34 -5 3 -14 2 -19 -1 -12 -7 79 -115 97 -115 7 0 10 6 7 14 -4 10 8 22 35 36 44 22 46 26 31 50 -7 10 -13 11 -17 5 -5 -6 -25 -20 -45 -32 -29 -17 -39 -19 -47 -9 -8 9 -4 22 14 46 14 19 29 36 34 39 5 4 4 14 -4 24 -12 16 -15 15 -45 -23z"/>
 <path d="M572 753 c2 -9 8 -18 15 -20 7 -3 9 3 6 16 -6 25 -26 28 -21 4z"/>
 <path d="M612 729 c-7 -10 -21 -19 -32 -19 -20 0 -20 -1 2 -24 18 -18 25 -20 31 -10 4 8 19 14 32 14 14 0 25 5 25 10 0 6 -7 10 -15 10 -8 0 -15 6 -15 14 0 24 -15 26 -28 5z"/>
 <path d="M744 623 c4 -12 3 -30 -3 -40 -7 -15 -4 -22 18 -34 27 -16 27 -16 23 13 -3 22 1 30 19 37 21 8 22 10 6 16 -10 4 -21 5 -24 1 -4 -3 -15 2 -26 11 -19 17 -19 17 -13 -4z"/>
 <path d="M906 543 c1 -27 6 -39 18 -41 9 -2 16 3 16 12 0 8 10 22 22 30 l22 16 -26 0 c-15 0 -30 5 -33 10 -12 20 -20 9 -19 -27z"/>
 <path d="M723 522 c-21 -59 -34 -83 -43 -77 -5 3 -10 0 -10 -8 0 -29 49 -29 96 -2 l45 26 21 -50 c16 -37 29 -53 51 -60 28 -10 28 -10 22 17 -3 15 1 46 9 69 14 38 13 41 -4 46 -15 4 -22 -3 -30 -29 -7 -19 -15 -34 -19 -34 -4 0 -14 18 -21 40 l-13 40 -32 -20 c-45 -28 -57 -26 -45 6 13 34 13 41 -5 48 -10 3 -18 -1 -22 -12z"/>
 <path d="M1291 561 c-7 -4 -24 -6 -39 -4 -23 4 -24 3 -9 -7 9 -6 17 -22 17 -35 0 -18 5 -25 20 -25 15 0 20 7 20 29 0 16 5 31 12 33 7 3 8 7 2 11 -5 3 -16 2 -23 -2z"/>
 <path d="M1070 548 c0 -4 5 -10 11 -14 6 -3 9 -16 7 -29 -4 -17 0 -22 15 -21 13 1 21 9 22 21 2 11 5 27 9 36 6 12 0 15 -29 15 -19 -1 -35 -4 -35 -8z"/>
 <path d="M1260 435 c0 -43 -12 -44 -41 -5 l-23 30 -24 -35 c-32 -44 -42 -44 -42 0 0 28 -4 35 -20 35 -18 0 -20 -7 -20 -55 0 -30 -4 -55 -10 -55 -5 0 -10 -4 -10 -10 0 -5 12 -10 28 -10 19 0 37 11 65 42 l37 43 34 -37 c25 -29 41 -38 65 -38 32 0 42 14 16 24 -11 4 -15 20 -15 56 0 43 -3 50 -20 50 -16 0 -20 -7 -20 -35z"/>
 </g>
<g id="layer110" fill="#9dc2e7" stroke="none">
 <path d="M855 1874 c-304 -68 -547 -301 -631 -604 -25 -91 -25 -319 0 -410 79 -285 290 -502 576 -592 65 -20 95 -23 230 -23 152 0 157 1 257 36 223 79 382 218 483 424 103 211 108 486 11 699 -95 210 -276 371 -501 447 -84 28 -110 32 -225 35 -92 3 -151 -1 -200 -12z m373 -35 c353 -90 603 -415 602 -783 -1 -201 -101 -430 -251 -571 -159 -150 -336 -219 -554 -218 -143 1 -239 23 -360 83 -322 161 -498 535 -420 890 22 101 101 260 169 342 196 234 513 334 814 257z"/>
 </g>
<g id="layer111" fill="#f1f6fb" stroke="none">
 <path d="M921 1880 c-298 -42 -553 -242 -660 -518 -39 -102 -53 -185 -52 -312 0 -127 24 -229 81 -346 102 -210 281 -359 517 -430 74 -23 108 -27 213 -27 85 0 147 5 194 16 561 138 813 781 494 1259 -172 256 -487 399 -787 358z m314 -35 c222 -62 410 -216 511 -420 61 -125 84 -221 84 -360 0 -360 -226 -665 -575 -775 -106 -34 -292 -39 -407 -11 -165 39 -286 109 -404 233 -81 85 -133 166 -170 264 -71 189 -71 389 0 578 92 244 322 443 581 500 89 20 293 15 380 -9z"/>
 </g>

</svg>